<svg xmlns="http://www.w3.org/2000/svg" viewBox="0 0 472.476 240"><path d="M403.186 18.373H239.131a5.867 5.867 0 0 0-5.859 5.859v49.93h1.528v-49.93a4.336 4.336 0 0 1 4.331-4.331h164.056a4.336 4.336 0 0 1 4.33 4.331v191.567a4.336 4.336 0 0 1-4.33 4.331h-45.145v-13.5a4.281 4.281 0 0 0-4.277-4.276H288.55a4.281 4.281 0 0 0-4.275 4.276v13.5H239.13a4.336 4.336 0 0 1-4.331-4.331v-36.173h3.821l-4.585-9.171-4.586 9.171h3.821v36.173a5.867 5.867 0 0 0 5.859 5.859h45.145v13.5a4.281 4.281 0 0 0 4.275 4.276h65.214a4.281 4.281 0 0 0 4.277-4.276v-13.5h45.145a5.866 5.866 0 0 0 5.858-5.859V24.233a5.866 5.866 0 0 0-5.857-5.86z" fill="#7d7d7d"/><path d="M472.475 120.153l-9.17-4.586v3.82H0v1.529h463.306v3.821z" fill="#00a0e9"/><g fill="#00a0e9"><path d="M96.474 78.238a4.088 4.088 0 0 0-4.076-4.076H27.183a4.088 4.088 0 0 0-4.075 4.076v18.851h73.366z"/><path d="M97.243 97.855h-74.9V78.239a4.846 4.846 0 0 1 4.84-4.84h65.215a4.846 4.846 0 0 1 4.841 4.84zm-73.366-1.528h71.837V78.24a3.315 3.315 0 0 0-3.312-3.312H27.183a3.314 3.314 0 0 0-3.311 3.312z"/></g><path d="M23.117 97.699l.546 64.7a4.086 4.086 0 0 0 4.109 4.041l65.212-.549a4.087 4.087 0 0 0 4.041-4.11l-.545-64.7z" fill="#fff"/><path d="M27.738 167.207a4.847 4.847 0 0 1-4.84-4.8l-.551-65.467 74.892-.632.552 65.468a4.853 4.853 0 0 1-4.8 4.881l-65.213.55zm-3.85-68.75l.539 63.938a3.323 3.323 0 0 0 3.34 3.283l65.211-.549a3.326 3.326 0 0 0 3.285-3.34l-.54-63.938z" fill="#00a0e9"/><path d="M45.751 127.271c-.117 0-.129-.012-.129-.129 0-.082.023-.832.023-4.334v-2.3c0-2.308-.023-3.069-.023-3.151 0-.117.012-.129.129-.129.082 0 .492.023 1.629.023h4.335c1.136 0 1.547-.023 1.628-.023.117 0 .13.012.13.129 0 .07-.023.832-.023 2.765v2.659c0 3.5.023 4.241.023 4.312 0 .116-.013.128-.13.128h-1.042c-.117 0-.13-.012-.13-.128v-.634h-5.248v.68c0 .117-.012.129-.141.129zm1.172-7.346h5.248v-1.535h-5.248zm5.248 2.671v-1.558h-5.248v1.558zm0 2.729v-1.617h-5.248v1.617zm4.923-5.306c-.762 0-.984.023-1.054.023-.117 0-.13-.012-.13-.129v-.82c0-.116.013-.128.13-.128.069 0 .292.023 1.054.023h.176v-.738a10.027 10.027 0 0 0-.081-1.57 11.191 11.191 0 0 1 1.136.082c.105.024.187.06.187.129a.533.533 0 0 1-.07.234 3.335 3.335 0 0 0-.082 1.113v.75c.61 0 .809-.023.879-.023.129 0 .141.012.141.128v.82c0 .117-.012.129-.141.129-.058 0-.258-.012-.8-.023a6.6 6.6 0 0 0 1.184 2.1 3.108 3.108 0 0 0-.387.7c-.058.14-.094.223-.151.223-.036 0-.083-.047-.141-.164a7.666 7.666 0 0 1-.621-1.441c.011 3.1.082 5.647.082 5.834 0 .117-.012.129-.117.129h-.937c-.117 0-.129-.012-.129-.129 0-.176.07-2.46.082-5.166a9.577 9.577 0 0 1-.937 2.412c-.059.129-.116.2-.163.2s-.095-.06-.13-.188a3.121 3.121 0 0 0-.409-.867 10.091 10.091 0 0 0 1.511-3.643zm3.21 5.084a2.047 2.047 0 0 0 .3-.5 6.537 6.537 0 0 1 .878.375c.095.047.13.082.13.141a.2.2 0 0 1-.106.164.717.717 0 0 0-.233.258 6.737 6.737 0 0 1-1.289 1.371c-.129.105-.2.164-.27.164s-.129-.07-.27-.211a2.75 2.75 0 0 0-.608-.48 5.189 5.189 0 0 0 1.468-1.282zm.7-.714c-1.137 0-1.523.023-1.593.023-.13 0-.142-.012-.142-.129v-.727c0-.129.012-.14.142-.14.069 0 .456.023 1.593.023h3.866c1.147 0 1.547-.023 1.6-.023.117 0 .129.011.129.14v.727c0 .117-.012.129-.129.129-.058 0-.457-.023-1.6-.023h-1.418v.41c0 .457.023.926.023 1.347a1.014 1.014 0 0 1-.352.938c-.222.176-.526.234-1.276.234-.364 0-.352.012-.435-.351a2.7 2.7 0 0 0-.269-.715 6.232 6.232 0 0 0 .82.07.363.363 0 0 0 .386-.41v-1.523zm.07-6.279c-1.137 0-1.523.023-1.594.023-.117 0-.129-.012-.129-.141v-.75c0-.118.012-.129.129-.129.07 0 .457.023 1.594.023h3.749c1.136 0 1.534-.023 1.6-.023.106 0 .118.011.118.129v.75c0 .128-.012.141-.118.141-.07 0-.469-.023-1.6-.023h-.6v.75h.188c1.1 0 1.488-.023 1.569-.023.118 0 .129.011.129.128 0 .07-.022.258-.022.773v.75c0 .516.022.7.022.773 0 .129-.011.142-.129.142-.081 0-.469-.024-1.569-.024h-2.977c-1.1 0-1.487.024-1.558.024-.117 0-.129-.013-.129-.142 0-.069.023-.257.023-.773v-.75c0-.516-.023-.691-.023-.773 0-.117.012-.128.129-.128.07 0 .434.023 1.534.023h.165v-.75zm.6 4.756c-1.03 0-1.394.023-1.464.023-.117 0-.129-.012-.129-.129v-.715c0-.117.012-.129.129-.129.07 0 .434.023 1.464.023h2.5c1.054 0 1.4-.023 1.476-.023.117 0 .129.012.129.129v.715c0 .117-.012.129-.129.129-.071 0-.422-.023-1.476-.023zm-.093-2.308v-.891h-.832v.891zm1.7-2.449h-.75v.75h.75zm-.75 2.449h.75v-.891h-.75zm2.272 4.135c.128-.082.152-.082.222.012a6.176 6.176 0 0 0 1.746 1.453 3.264 3.264 0 0 0-.5.609c-.1.188-.163.27-.223.27s-.14-.059-.269-.164a8.4 8.4 0 0 1-1.594-1.628c-.07-.118-.07-.141.069-.235zm.258-5.026h-.832v.891h.832zm9.071 2.344a1.172 1.172 0 1 1-1.172-1.171 1.176 1.176 0 0 1 1.172 1.171zm-32.934 15.308l3.422 5.472h-1.794l-2.647-4.37-1.065 1.2v3.175h-1.559v-9.092h1.559v4.141l3.432-4.147h1.8zm7.957-3.62c2.238 0 3.246.926 3.246 2.6s-1.16 2.671-3.34 2.671h-1.533v3.819h-1.583v-9.092zm-1.627 4.089h1.486c1.207 0 1.793-.55 1.793-1.476 0-.9-.527-1.429-1.733-1.429h-1.546zm8.131 5.003h-1.593v-9.092h1.593zm7.511-7.769c.891 0 1.184-.024 1.254-.024.117 0 .129.013.129.129v.832c0 .129-.012.141-.129.141-.07 0-.363-.023-1.254-.023h-1.522c-.892 0-1.184.023-1.242.023-.117 0-.129-.012-.129-.141v-.832c0-.116.012-.129.129-.129.059 0 .351.024 1.242.024zm5.858 2.87a.637.637 0 0 0 .258-.046.39.39 0 0 1 .176-.059c.082 0 .223.1.444.328.271.281.363.41.363.492a.214.214 0 0 1-.129.211.812.812 0 0 0-.28.363 8.506 8.506 0 0 1-1.395 2.18 7.8 7.8 0 0 0 2.543 1.125 3.808 3.808 0 0 0-.5.82c-.105.223-.14.316-.234.316a1.048 1.048 0 0 1-.269-.082 8.756 8.756 0 0 1-2.379-1.359 8.846 8.846 0 0 1-2.39 1.417.713.713 0 0 1-.27.082c-.095 0-.141-.082-.246-.293a2.238 2.238 0 0 0-.551-.691c.012.469.023.621.023.667 0 .117-.012.129-.129.129h-.832c-.117 0-.129-.012-.129-.129v-.387h-1.265v.609c0 .117-.013.129-.129.129h-.832c-.129 0-.141-.012-.141-.129 0-.082.022-.352.022-1.769v-.75c0-.738-.022-1.02-.022-1.1 0-.117.012-.129.141-.129.07 0 .316.024 1.066.024h1.042c.762 0 1-.024 1.078-.024.117 0 .129.012.129.129 0 .071-.023.353-.023.9v1.816a8.034 8.034 0 0 0 2.612-1.312 7.249 7.249 0 0 1-1.382-2.437c-.34 0-.492.011-.528.011-.117 0-.128-.011-.128-.141v-.819c0-.106.011-.118.128-.118.071 0 .41.023 1.43.023zm-6-4.475c.762 0 .984-.024 1.055-.024.129 0 .141.012.141.129v.785c0 .117-.012.129-.141.129-.07 0-.293-.023-1.055-.023h-1.065c-.762 0-1 .023-1.066.023-.118 0-.129-.012-.129-.129v-.785c0-.118.011-.129.129-.129.07 0 .3.024 1.066.024zm-.094 3.28c.715 0 .926-.023.984-.023.129 0 .141.011.141.117v.761c0 .117-.012.129-.141.129-.059 0-.27-.023-.984-.023h-.926c-.715 0-.925.023-1 .023-.116 0-.129-.012-.129-.129v-.761c0-.106.013-.117.129-.117.071 0 .281.023 1 .023zm0 1.569c.715 0 .926-.023.984-.023.129 0 .141.012.141.129v.75c0 .116-.012.128-.141.128-.059 0-.27-.023-.984-.023h-.926c-.715 0-.925.023-1 .023-.116 0-.129-.012-.129-.128v-.75c0-.117.013-.129.129-.129.071 0 .281.023 1 .023zm-1.1 2.566v1.172h1.265v-1.172zm4.943-6.384a3.82 3.82 0 0 1-1.147 2.987c-.129.128-.212.188-.281.188s-.153-.071-.281-.223a2.406 2.406 0 0 0-.645-.517 2.725 2.725 0 0 0 1.218-2.553c0-.527-.023-.8-.023-.867 0-.117.013-.128.141-.128.071 0 .282.023 1.031.023h1.172c.75 0 .984-.023 1.055-.023.117 0 .129.011.129.128 0 .07-.023.351-.023.949v1.218a.6.6 0 0 0 .082.4c.059.058.141.07.328.07a.334.334 0 0 0 .316-.164 3.06 3.06 0 0 0 .117-1.054 3.473 3.473 0 0 0 .69.316c.293.093.282.117.27.421-.035.7-.151 1.031-.422 1.253a1.771 1.771 0 0 1-1.194.27 2.042 2.042 0 0 1-1-.164.863.863 0 0 1-.316-.809v-1.722zm-.234 4.475a5.571 5.571 0 0 0 1.066 1.7 5.765 5.765 0 0 0 1.1-1.7zm8.955-3.924c.891 0 1.184-.023 1.254-.023.105 0 .117.012.117.129v.832c0 .129-.012.141-.117.141-.07 0-.363-.023-1.254-.023h-2.155c-.891 0-1.184.023-1.242.023-.117 0-.129-.012-.129-.141v-.832c0-.117.012-.129.129-.129.059 0 .352.023 1.242.023zm.891 6.679c0 1.359.023 1.617.023 1.687 0 .117-.012.129-.129.129h-.926c-.117 0-.129-.012-.129-.129v-.375H73.74v.585c0 .118-.012.129-.129.129h-.913c-.129 0-.141-.012-.141-.129 0-.07.023-.339.023-1.757v-.773c0-.738-.023-1.019-.023-1.1 0-.116.012-.128.141-.128.07 0 .315.023 1.065.023h1.441c.75 0 1-.023 1.078-.023.117 0 .129.012.129.128 0 .07-.023.352-.023.9zm-1.125-8.26c.75 0 .984-.024 1.055-.024.129 0 .141.012.141.129v.773c0 .117-.012.129-.141.129-.07 0-.3-.023-1.055-.023h-1.465c-.761 0-1 .023-1.066.023-.116 0-.129-.012-.129-.129v-.773c0-.118.013-.129.129-.129.071 0 .306.024 1.066.024zm-.129 3.245c.7 0 .914-.023.984-.023.129 0 .141.012.141.129v.762c0 .117-.012.129-.141.129-.07 0-.281-.024-.984-.024h-1.3c-.715 0-.925.024-1 .024-.116 0-.129-.012-.129-.129v-.762c0-.117.013-.129.129-.129.071 0 .281.023 1 .023zm0 1.582c.7 0 .914-.023.984-.023.129 0 .141.012.141.129v.75c0 .117-.012.128-.141.128-.07 0-.281-.023-.984-.023h-1.3c-.715 0-.925.023-1 .023-.116 0-.129-.011-.129-.128v-.75c0-.117.013-.129.129-.129.071 0 .281.023 1 .023zm-1.395 2.589v1.16h1.488v-1.16zm5.331-6.116a10.925 10.925 0 0 0-.094-1.769c.445.011.9.035 1.289.083.117.011.188.07.188.128a.981.981 0 0 1-.059.234 4.528 4.528 0 0 0-.082 1.3v2.1h.75c1.066 0 1.43-.023 1.488-.023.129 0 .14.011.14.141v.949c0 .117-.011.129-.14.129-.059 0-.422-.023-1.488-.023h-.75v3.538c0 1.324.023 1.992.023 2.05 0 .129-.012.141-.117.141h-1.056c-.105 0-.117-.012-.117-.141 0-.058.023-.726.023-2.039v-3.55h-.655c-1.066 0-1.43.023-1.5.023-.129 0-.141-.012-.141-.129v-.949c0-.129.012-.141.141-.141.07 0 .434.023 1.5.023h.655z" fill="#00a0e9"/><path d="M45.007 81.701c2.706 0 4.323 1.429 4.323 4.487s-1.8 4.6-4.534 4.6h-2.835v-9.087zm-1.476 7.872h1.23c1.769 0 2.894-1.008 2.894-3.373 0-2.344-1.056-3.281-2.812-3.281h-1.312zm8.39-1.672c.012 1.218.551 2.027 1.617 2.027.667 0 1.136-.375 1.358-1.218l1.336.386a2.55 2.55 0 0 1-2.707 1.863c-1.921 0-3.046-1.23-3.046-3.339s1.184-3.4 2.917-3.4c1.641 0 2.871 1.2 2.871 3.374v.3zm2.905-.972c-.07-1.078-.526-1.687-1.405-1.687s-1.406.656-1.477 1.687zm6.095-4.269a4.028 4.028 0 0 0-.517-.047c-.539 0-.784.257-.784.878v.867h1.336v1.066H59.62v5.366h-1.453v-5.366h-1.065V84.36h1.065v-.961a1.676 1.676 0 0 1 1.9-1.863 7.661 7.661 0 0 1 1.03.071zm2.776.55h-1.594v-1.511h1.594zm-.059 7.581h-1.477V84.36h1.477zm3.318-5.303a2.619 2.619 0 0 1 2.108-1.266 1.761 1.761 0 0 1 1.839 1.933v4.64h-1.51v-4.229c0-.739-.317-1.078-.891-1.078a1.973 1.973 0 0 0-1.5 1.089v4.218h-1.476v-6.432h1.43zm6.867 2.413c.011 1.218.55 2.027 1.616 2.027.668 0 1.137-.375 1.359-1.218l1.336.386a2.55 2.55 0 0 1-2.707 1.863c-1.921 0-3.046-1.23-3.046-3.339s1.183-3.4 2.917-3.4c1.641 0 2.871 1.2 2.871 3.374v.3zm2.905-.972c-.07-1.078-.527-1.687-1.406-1.687s-1.405.656-1.476 1.687z" fill="#fff"/><g fill="#00a0e9"><path d="M183.599 78.238a4.09 4.09 0 0 0-4.076-4.076h-65.216a4.089 4.089 0 0 0-4.076 4.076v18.851h73.368z"/><path d="M184.366 97.855h-74.9V78.239a4.846 4.846 0 0 1 4.841-4.84h65.215a4.845 4.845 0 0 1 4.84 4.84zM111 96.327h71.838V78.24a3.315 3.315 0 0 0-3.312-3.312h-65.215a3.315 3.315 0 0 0-3.312 3.312z"/></g><path d="M110.231 97.089v64.7a4.088 4.088 0 0 0 4.076 4.076h65.216a4.089 4.089 0 0 0 4.076-4.076v-64.7z" fill="#fff"/><path d="M179.522 166.635h-65.215a4.847 4.847 0 0 1-4.841-4.84v-65.47h74.9v65.469a4.845 4.845 0 0 1-4.844 4.841zm-68.526-68.781v63.94a3.315 3.315 0 0 0 3.312 3.312h65.215a3.315 3.315 0 0 0 3.312-3.312v-63.94z" fill="#00a0e9"/><path d="M119.843 118.52a.218.218 0 0 1 .316.083 9.408 9.408 0 0 1 1.313 2.213.472.472 0 0 1 .047.153c0 .07-.047.117-.141.175a7.039 7.039 0 0 1-.9.457c-.176.07-.246-.012-.3-.175a9.294 9.294 0 0 0-1.371-2.367 9.12 9.12 0 0 1 1.036-.539zm8.2.175a.273.273 0 0 1 .128.234.285.285 0 0 1-.094.2 2.322 2.322 0 0 0-.456.773 18.124 18.124 0 0 1-2.273 3.984 12.64 12.64 0 0 1-3.093 2.905.493.493 0 0 1-.27.105.338.338 0 0 1-.2-.083 3.579 3.579 0 0 0-1.125-.549 13.448 13.448 0 0 0 3.479-3.094 14.075 14.075 0 0 0 2.027-3.632 5.318 5.318 0 0 0 .339-1.535 8.442 8.442 0 0 1 1.54.692zm-5.145-.9a.217.217 0 0 1 .3.094 9.651 9.651 0 0 1 1.148 2.167.229.229 0 0 1-.117.328 7.936 7.936 0 0 1-.891.422c-.187.07-.258.047-.315-.141a9.418 9.418 0 0 0-1.208-2.367c.363-.164.734-.352 1.086-.505zm9.836 5.048a9.376 9.376 0 0 0-1.724.141c-.14 0-.234-.07-.269-.246a12.659 12.659 0 0 1-.177-1.417 15.184 15.184 0 0 0 2.531.14h3.772c.89 0 1.792-.023 2.694-.035.177-.012.211.023.211.164a8.638 8.638 0 0 1 0 1.1c0 .14-.047.188-.211.176a191.22 191.22 0 0 0-2.612-.023zm12.772-3.808c.2.059.222.2.151.363a1.7 1.7 0 0 0-.141.8 8.741 8.741 0 0 1-.633 3.444 6.018 6.018 0 0 1-1.663 2.2.536.536 0 0 1-.3.152.4.4 0 0 1-.222-.093 4.161 4.161 0 0 0-1-.492 5.812 5.812 0 0 0 1.945-2.331 7.621 7.621 0 0 0 .491-3.316 3.156 3.156 0 0 0-.116-.984 9.592 9.592 0 0 1 1.488.257zm2.6 4.956a12.06 12.06 0 0 0 1.664-1.09 11.231 11.231 0 0 0 2.049-1.991 3.36 3.36 0 0 0 .364 1.183.6.6 0 0 1 .07.2c0 .083-.047.164-.176.293a14.978 14.978 0 0 1-1.734 1.535 19.462 19.462 0 0 1-2.086 1.406 3.832 3.832 0 0 0-.339.246.376.376 0 0 1-.233.093.506.506 0 0 1-.248-.093 3.429 3.429 0 0 1-.7-.714.475.475 0 0 1-.1-.247.361.361 0 0 1 .047-.176c.082-.151.071-.293.071-.891v-3.667a9.276 9.276 0 0 0-.118-2.039 11.138 11.138 0 0 1 1.464.246c.153.035.212.105.212.2a.746.746 0 0 1-.094.292 3.245 3.245 0 0 0-.105 1.3zm8.157-5.273c.891 0 1.183-.023 1.253-.023.117 0 .13.012.13.128v.833c0 .128-.013.141-.13.141-.07 0-.362-.023-1.253-.023h-1.523c-.891 0-1.184.023-1.242.023-.117 0-.129-.012-.129-.141v-.833c0-.116.012-.128.129-.128.059 0 .352.023 1.242.023zm5.857 2.87a.651.651 0 0 0 .258-.046.39.39 0 0 1 .176-.059c.082 0 .223.1.444.328.271.281.363.41.363.492a.215.215 0 0 1-.129.211.806.806 0 0 0-.281.363 8.476 8.476 0 0 1-1.394 2.18 7.813 7.813 0 0 0 2.542 1.125 3.828 3.828 0 0 0-.5.819c-.105.223-.14.317-.234.317a1.058 1.058 0 0 1-.27-.083 8.762 8.762 0 0 1-2.378-1.358 8.874 8.874 0 0 1-2.39 1.417.724.724 0 0 1-.27.082c-.094 0-.141-.082-.246-.292a2.232 2.232 0 0 0-.551-.691c.012.469.023.621.023.667 0 .117-.012.128-.128.128h-.833c-.117 0-.128-.011-.128-.128v-.387h-1.266v.609c0 .117-.013.129-.129.129h-.832c-.129 0-.141-.012-.141-.129 0-.082.023-.352.023-1.769v-.75c0-.738-.023-1.019-.023-1.1 0-.116.012-.128.141-.128.07 0 .316.023 1.066.023h1.043c.761 0 1-.023 1.078-.023.116 0 .128.012.128.128 0 .071-.023.353-.023.9v1.816a8.025 8.025 0 0 0 2.612-1.312 7.283 7.283 0 0 1-1.382-2.437c-.34 0-.492.011-.527.011-.117 0-.129-.011-.129-.141v-.819c0-.106.012-.118.129-.118.07 0 .41.023 1.429.023zm-6-4.475c.762 0 .984-.023 1.056-.023.128 0 .14.011.14.129v.785c0 .117-.012.128-.14.128-.071 0-.294-.023-1.056-.023h-1.065c-.762 0-1 .023-1.066.023-.117 0-.129-.011-.129-.128v-.785c0-.118.012-.129.129-.129.07 0 .3.023 1.066.023zm-.093 3.28c.714 0 .925-.023.983-.023.129 0 .142.011.142.117v.761c0 .117-.013.129-.142.129-.059 0-.27-.023-.983-.023h-.926c-.715 0-.926.023-1 .023-.117 0-.129-.012-.129-.129v-.761c0-.106.012-.117.129-.117.07 0 .281.023 1 .023zm0 1.569c.714 0 .925-.023.983-.023.129 0 .142.012.142.129v.75c0 .116-.013.128-.142.128-.059 0-.27-.023-.983-.023h-.926c-.715 0-.926.023-1 .023-.117 0-.129-.012-.129-.128v-.75c0-.117.012-.129.129-.129.07 0 .281.023 1 .023zm-1.1 2.566v1.172h1.266v-1.172zm4.943-6.384a3.816 3.816 0 0 1-1.147 2.987c-.129.128-.211.188-.281.188s-.152-.071-.281-.223a2.422 2.422 0 0 0-.645-.517 2.722 2.722 0 0 0 1.218-2.553c0-.527-.023-.8-.023-.867 0-.117.013-.128.141-.128.07 0 .281.023 1.031.023h1.172c.749 0 .984-.023 1.055-.023.116 0 .129.011.129.128 0 .07-.023.352-.023.949v1.219a.589.589 0 0 0 .082.4c.059.058.14.07.327.07a.335.335 0 0 0 .317-.164 3.066 3.066 0 0 0 .117-1.055 3.447 3.447 0 0 0 .69.317c.293.093.281.116.27.421-.035.7-.152 1.031-.422 1.254a1.778 1.778 0 0 1-1.194.269 2.039 2.039 0 0 1-1-.164.863.863 0 0 1-.316-.808v-1.722zm-.234 4.475a5.571 5.571 0 0 0 1.066 1.7 5.742 5.742 0 0 0 1.1-1.7zm9.093-1.428c-1.136 0-1.511.023-1.581.023-.129 0-.14-.012-.14-.129v-.855c0-.117.011-.129.14-.129.07 0 .445.023 1.581.023h3.3c1.125 0 1.512-.023 1.582-.023.117 0 .128.012.128.129v.855c0 .117-.011.129-.128.129-.07 0-.457-.023-1.582-.023h-1v1.558h1.429c.961 0 1.276-.023 1.348-.023.129 0 .141.012.141.129v.854c0 .106-.012.118-.141.118-.071 0-.387-.023-1.348-.023h-1.429v2a19.637 19.637 0 0 0 2.261.105c.668 0 1.5-.047 2.272-.105a3.309 3.309 0 0 0-.224.844c-.045.363-.058.363-.422.4-.443.023-.912.035-1.381.035-4.194-.012-5.014-.645-5.94-2.039a6.66 6.66 0 0 1-1.429 2c-.118.129-.187.2-.258.2s-.117-.07-.234-.223a2.523 2.523 0 0 0-.68-.609 6 6 0 0 0 2.179-4.452c.388.059.774.141 1.114.223.163.035.222.082.222.164a.363.363 0 0 1-.105.223.983.983 0 0 0-.152.362 9.463 9.463 0 0 1-.211.927 2.922 2.922 0 0 0 1.758 1.675v-4.346zm4.9-3.328c1.09 0 1.476-.023 1.547-.023.116 0 .129.011.129.117 0 .082-.023.281-.023.609v.5c0 1.042.023 1.218.023 1.288 0 .117-.013.129-.129.129h-.962c-.116 0-.128-.012-.128-.129v-1.417h-7.416v1.417c0 .117-.012.129-.142.129h-.948c-.116 0-.129-.012-.129-.129 0-.082.023-.246.023-1.288v-.4c0-.433-.023-.632-.023-.714 0-.105.013-.117.129-.117.082 0 .457.023 1.559.023h2.507v-.105a4.779 4.779 0 0 0-.081-1.113c.433 0 .854.023 1.252.058.106.012.177.047.177.118a.566.566 0 0 1-.07.222 2.092 2.092 0 0 0-.047.7v.117zm-48.453 21.213c0-.422.012-.925.023-1.417-.223.316-.457.608-.7.9-.095.1-.164.164-.211.164s-.094-.059-.13-.2a3.515 3.515 0 0 0-.4-1.054 10.794 10.794 0 0 0 2.156-3.714 4.227 4.227 0 0 0 .2-.832 10.981 10.981 0 0 1 1.136.351c.129.047.2.094.2.176s-.036.129-.141.211c-.07.047-.13.164-.247.469a16.717 16.717 0 0 1-.7 1.6v6.034c0 1.148.022 1.722.022 1.78 0 .117-.011.129-.128.129h-.983c-.106 0-.118-.012-.118-.129 0-.07.023-.632.023-1.78zm7.533-2.683a.62.62 0 0 0 .328-.047.371.371 0 0 1 .188-.047c.07 0 .164.023.457.3.3.3.363.386.363.48s-.035.129-.117.211a1.071 1.071 0 0 0-.223.434 11.272 11.272 0 0 1-1.395 3.092 9.793 9.793 0 0 0 2.566 1.57 2.911 2.911 0 0 0-.516.855c-.082.188-.117.27-.2.27a.882.882 0 0 1-.281-.117 11.208 11.208 0 0 1-2.32-1.629 8.7 8.7 0 0 1-2.167 1.7.783.783 0 0 1-.281.117c-.083 0-.129-.082-.234-.27a2.992 2.992 0 0 0-.562-.738 8.166 8.166 0 0 0 2.448-1.687 7.535 7.535 0 0 1-1.533-3.433h-.106a14.608 14.608 0 0 1-.258 2.823 8.01 8.01 0 0 1-1.312 3.07c-.1.129-.163.2-.211.2s-.117-.07-.222-.211a3.318 3.318 0 0 0-.621-.726 5.748 5.748 0 0 0 1.218-2.7 17.869 17.869 0 0 0 .211-3.549c0-1.792-.023-2.577-.023-2.648 0-.117.013-.129.141-.129.07 0 .481.023 1.594.023h3.3c1.113 0 1.5-.023 1.57-.023.105 0 .117.012.117.129v.914c0 .118-.012.129-.117.129-.07 0-.457-.023-1.57-.023h-3.808v1.652zm-2.425 1.066a6.525 6.525 0 0 0 1.219 2.53 8.169 8.169 0 0 0 1.078-2.53zm8.204-2.436c.9 0 1.184-.024 1.253-.024.118 0 .129.012.129.129v.832c0 .129-.011.141-.129.141-.069 0-.351-.023-1.253-.023h-1.346c-.891 0-1.184.023-1.241.023-.118 0-.13-.011-.13-.141v-.832c0-.117.012-.129.13-.129.058 0 .351.024 1.241.024zm5.869 6.958c0 .2.011.293.105.353a.757.757 0 0 0 .445.082.541.541 0 0 0 .48-.164c.1-.128.141-.375.162-1.266a2.4 2.4 0 0 0 .716.352c.294.094.3.094.281.4-.06.949-.222 1.325-.479 1.523a2.2 2.2 0 0 1-1.325.292 2.274 2.274 0 0 1-1.158-.187c-.212-.152-.341-.375-.341-.961v-3.421h-.667c-.07 2.3-.669 3.55-1.981 4.558-.128.094-.21.152-.268.152-.083 0-.141-.07-.259-.222a3.964 3.964 0 0 0-.48-.5c0 .223.012.306.012.34 0 .117-.012.128-.129.128h-.829c-.118 0-.13-.011-.13-.128v-.258h-1.183v.539c0 .1-.012.117-.129.117h-.831c-.13 0-.141-.012-.141-.117 0-.083.022-.353.022-1.769v-.75c0-.739-.022-1.02-.022-1.1 0-.117.011-.129.141-.129.07 0 .314.023 1.064.023h.961c.763 0 1.008-.023 1.078-.023.117 0 .129.012.129.129 0 .07-.022.352-.022.9v1.886c1.313-.773 1.828-1.746 1.886-3.772-.668.012-.914.023-.973.023-.13 0-.141-.011-.141-.128 0-.07.024-.352.024-1.019v-1.43c0-.68-.024-.949-.024-1.019 0-.117.011-.128.141-.128.07 0 .41.023 1.43.023h1.358a13.008 13.008 0 0 0 .668-1.606 3.587 3.587 0 0 0 .153-.738 11.48 11.48 0 0 1 1.158.339c.083.036.153.094.153.165a.268.268 0 0 1-.117.211 1.2 1.2 0 0 0-.224.374c-.141.34-.328.762-.585 1.254.783 0 1.09-.023 1.16-.023.117 0 .128.011.128.128 0 .058-.022.339-.022 1.019v1.43c0 .667.022.949.022 1.019 0 .117-.011.128-.128.128-.082 0-.4-.023-1.289-.023zm-5.917-8.563c.763 0 1-.024 1.055-.024.13 0 .141.012.141.129v.773c0 .117-.011.128-.141.128-.058 0-.292-.023-1.055-.023h-.983c-.761 0-1 .023-1.066.023-.116 0-.129-.011-.129-.128v-.773c0-.117.013-.129.129-.129.071 0 .306.024 1.066.024zm-.1 3.268c.714 0 .925-.023 1-.023.117 0 .129.011.129.128v.764c0 .116-.012.128-.129.128-.07 0-.281-.023-1-.023h-.832c-.715 0-.926.023-1 .023-.117 0-.129-.012-.129-.128v-.762c0-.117.012-.128.129-.128.07 0 .281.023 1 .023zm0 1.582c.714 0 .925-.023 1-.023.117 0 .129.011.129.128v.75c0 .117-.012.129-.129.129-.07 0-.281-.023-1-.023h-.832c-.715 0-.926.023-1 .023-.117 0-.129-.012-.129-.129v-.75c0-.117.012-.128.129-.128.07 0 .281.023 1 .023zm-1.008 2.566v1.242h1.183v-1.242zm4.217-7.721c.142-.058.176-.047.234.036a7.258 7.258 0 0 1 .785 1.477c.047.116.013.152-.116.211l-.738.316c-.141.058-.165.058-.211-.058a7.241 7.241 0 0 0-.738-1.512c-.071-.094-.047-.128.083-.187zm3.058 3.233h-3.116v1.558h3.116zm4.473 6.759c-1.031 0-1.383.023-1.453.023-.1 0-.117-.012-.117-.129v-.984c0-.117.013-.128.117-.128.07 0 .422.023 1.453.023h4.112a36.426 36.426 0 0 0 1.313-4.089 7.374 7.374 0 0 0 .188-1.125 11.693 11.693 0 0 1 1.335.4c.1.036.141.094.141.165a.355.355 0 0 1-.116.234 1.212 1.212 0 0 0-.224.469c-.41 1.4-.854 2.695-1.348 3.948h1.979c1.031 0 1.383-.023 1.453-.023.117 0 .13.011.13.128v.984c0 .117-.013.129-.13.129-.07 0-.422-.023-1.453-.023zm.656-6.912c-1.1 0-1.488.023-1.558.023-.118 0-.13-.012-.13-.141v-.949c0-.129.012-.14.13-.14.069 0 .455.023 1.558.023h2.319v-.9a4.5 4.5 0 0 0-.082-1.078c.433 0 .867.023 1.288.058.105.013.188.071.188.13a.664.664 0 0 1-.069.234 2.09 2.09 0 0 0-.059.656v.9h2.507c1.113 0 1.5-.023 1.569-.023.117 0 .13.011.13.14v.949c0 .129-.013.141-.13.141-.07 0-.456-.023-1.569-.023zm.679.609c.153-.059.177-.048.224.07a15.876 15.876 0 0 1 1.172 3.937c.022.117.022.152-.141.2l-.915.3c-.163.059-.2.047-.223-.082a14.763 14.763 0 0 0-1.1-3.937c-.047-.117-.034-.129.13-.187zm16.854-.163a5.138 5.138 0 0 1-1.089 1.148c.914.246 1.839.527 2.823.866.059.023.094.047.094.083a.281.281 0 0 1-.071.128l-.469.622c-.093.14-.128.14-.245.093-1.054-.421-2.109-.819-3.2-1.147a6.514 6.514 0 0 1-1.252.457c.375.012.7.047 1.065.083.117.011.176.07.176.128a2.074 2.074 0 0 1-.069.3 2.114 2.114 0 0 0-.048.457h3.034c1.043 0 1.406-.023 1.476-.023.13 0 .141.012.141.129v.761c0 .117-.011.129-.141.129-.069 0-.433-.023-1.476-.023h-2.214a10.806 10.806 0 0 0 4.1 1.582 2.866 2.866 0 0 0-.492.785c-.14.34-.164.328-.516.234a9.148 9.148 0 0 1-3.937-2.155c.012 1.183.047 2.027.047 2.261 0 .117-.012.128-.13.128h-.96c-.117 0-.128-.011-.128-.128 0-.234.046-1.031.058-2.238a10.207 10.207 0 0 1-3.819 2.143 1.228 1.228 0 0 1-.269.059c-.105 0-.153-.07-.259-.27a2.853 2.853 0 0 0-.491-.713 11.375 11.375 0 0 0 3.948-1.687h-2.016c-1.042 0-1.405.023-1.476.023-.129 0-.142-.012-.142-.129v-.761c0-.117.013-.129.142-.129.07 0 .434.023 1.476.023h2.882a7.616 7.616 0 0 0-.082-.937 18.118 18.118 0 0 1-3.232.457c-.295.023-.328.011-.422-.247a2.393 2.393 0 0 0-.387-.691 18.735 18.735 0 0 0 3.865-.433 24.676 24.676 0 0 0-1.1-.234 3.037 3.037 0 0 1-.234.211c-.081.083-.1.083-.292.023l-.668-.211c-.165-.046-.151-.129-.07-.2.2-.175.421-.41.622-.61l.315-.351h-1.019c-1.067 0-1.431.023-1.5.023-.13 0-.141-.011-.141-.117v-.714c0-.117.011-.129.141-.129.069 0 .433.023 1.5.023h1.721l.06-.094a4.665 4.665 0 0 0 .422-.8c.421.058.784.128 1.136.211.082.023.14.07.14.152 0 .058-.069.117-.151.164a1.143 1.143 0 0 0-.328.363h3.808c1.066 0 1.429-.023 1.5-.023.116 0 .129.012.129.129v.714c0 .106-.013.117-.129.117-.071 0-.434-.023-1.5-.023zm-6.373-1.335c0 .1-.011.116-.129.116h-.937c-.129 0-.142-.011-.142-.116 0-.083.024-.164.024-.891v-.187c0-.187-.024-.293-.024-.364 0-.117.013-.128.142-.128.07 0 .469.023 1.581.023h2.379a3.97 3.97 0 0 0-.082-.844c.421 0 .843.023 1.253.059.1.011.176.058.176.116a.58.58 0 0 1-.071.234 1.306 1.306 0 0 0-.047.434h2.543c1.1 0 1.5-.023 1.582-.023.116 0 .13.011.13.128 0 .07-.024.176-.024.328v.223c0 .727.024.819.024.891 0 .1-.014.116-.13.116h-.949c-.117 0-.129-.011-.129-.116v-.609h-7.17zm2.565 1.335a5.334 5.334 0 0 1-.387.48c.634.1 1.255.234 1.863.363a4.35 4.35 0 0 0 1.043-.843z" fill="#00a0e9"/><path d="M132.054 90.794h-1.511V86.2c0-1.137.012-2.133.023-3.21h-.164a65.428 65.428 0 0 1-.749 3.092l-1.231 4.71h-1.852l-1.193-4.65c-.281-1.055-.5-2.039-.773-3.152h-.164c.023 1.054.035 2.109.035 3.234v4.568h-1.395V81.7h2.566l1.147 4.639c.234.949.469 2 .656 3h.164c.245-1 .432-1.932.7-2.976l1.16-4.662h2.577zm3.1-2.894c.011 1.218.549 2.027 1.616 2.027.667 0 1.136-.375 1.359-1.218l1.335.386a2.55 2.55 0 0 1-2.707 1.863c-1.921 0-3.046-1.23-3.046-3.339s1.184-3.4 2.918-3.4c1.641 0 2.87 1.2 2.87 3.374v.3zm2.9-.972c-.069-1.078-.527-1.687-1.4-1.687s-1.406.656-1.478 1.687zm2.744-.949a2.472 2.472 0 0 1 2.659-1.769c1.663 0 2.494.7 2.494 2.132v2.554a16.806 16.806 0 0 0 .106 1.9h-1.359c-.047-.281-.07-.469-.105-.844a2.411 2.411 0 0 1-2.026 1 1.827 1.827 0 0 1-1.979-1.91c0-1.125.7-1.852 2.1-2.121a12.258 12.258 0 0 1 1.839-.187v-.364c0-.808-.339-1.136-1.113-1.136a1.226 1.226 0 0 0-1.23 1.125zm3.725 1.664a6.629 6.629 0 0 0-1.475.188c-.692.164-1.057.515-1.057 1.089a.912.912 0 0 0 1.031.973 1.754 1.754 0 0 0 1.5-1.054zm6.532-1.384a1.151 1.151 0 0 0-1.148-1.03c-.632 0-1.008.3-1.008.691 0 .5.211.714 1.148.96l.539.141c1.464.386 1.992.914 1.992 1.957 0 1.148-.856 1.98-2.6 1.98a2.512 2.512 0 0 1-2.684-1.605l1.372-.48a1.355 1.355 0 0 0 1.346 1.078c.844 0 1.172-.363 1.172-.832 0-.527-.223-.667-1.241-.96l-.539-.152c-1.394-.375-1.886-.879-1.886-1.957 0-1.031.843-1.828 2.413-1.828a2.384 2.384 0 0 1 2.519 1.641zm8.342 4.536h-1.43v-1.114a2.461 2.461 0 0 1-2.085 1.278 1.75 1.75 0 0 1-1.863-1.9v-4.7h1.512v4.276c0 .727.328 1.055.9 1.055a1.891 1.891 0 0 0 1.488-1.1v-4.229h1.477zm5.18-5.191c-.772 0-1.418.5-1.827 1.628v3.562h-1.453v-6.432h1.383v1.582c.456-1.265 1.125-1.722 1.991-1.722zm2.368 2.296c.012 1.218.551 2.027 1.616 2.027.668 0 1.137-.375 1.358-1.218l1.336.386a2.549 2.549 0 0 1-2.706 1.863c-1.921 0-3.046-1.23-3.046-3.339s1.183-3.4 2.917-3.4c1.64 0 2.87 1.2 2.87 3.374v.3zm2.9-.972c-.069-1.078-.526-1.687-1.405-1.687s-1.406.656-1.477 1.687z" fill="#fff"/><g fill="#00a0e9"><path d="M270.718 78.238a4.088 4.088 0 0 0-4.076-4.076h-65.214a4.088 4.088 0 0 0-4.076 4.076v18.851h73.366z"/><path d="M271.487 97.855h-74.9V78.239a4.846 4.846 0 0 1 4.841-4.84h65.214a4.846 4.846 0 0 1 4.841 4.84zm-73.367-1.528h71.837V78.24a3.314 3.314 0 0 0-3.311-3.312h-65.214a3.316 3.316 0 0 0-3.312 3.312z"/></g><path d="M197.352 97.089v64.7a4.087 4.087 0 0 0 4.076 4.076h65.214a4.087 4.087 0 0 0 4.076-4.076v-64.7z" fill="#fff"/><path d="M266.642 166.635h-65.214a4.847 4.847 0 0 1-4.841-4.84v-65.47h74.9v65.469a4.847 4.847 0 0 1-4.845 4.841zm-68.526-68.781v63.94a3.316 3.316 0 0 0 3.313 3.312h65.214a3.314 3.314 0 0 0 3.311-3.312v-63.94z" fill="#00a0e9"/><path d="M217.078 117.197a10.339 10.339 0 0 0 5.015 3.491 3.041 3.041 0 0 0-.5.891c-.081.211-.115.3-.211.3a1.088 1.088 0 0 1-.279-.106 13.752 13.752 0 0 1-1.606-.832v.855c0 .117-.011.129-.116.129-.071 0-.445-.023-1.523-.023h-.831v1.313h1.335c1.136 0 1.523-.024 1.594-.024.128 0 .141.012.141.129v.891c0 .117-.013.129-.141.129-.07 0-.458-.023-1.594-.023h-1.345v1.43h2.788c1.065 0 1.44-.023 1.511-.023.118 0 .128.012.128.129v.914c0 .117-.01.129-.128.129-.07 0-.445-.023-1.511-.023h-6.688c-1.079 0-1.453.023-1.524.023-.116 0-.128-.012-.128-.129v-.914c0-.117.012-.129.128-.129.071 0 .445.023 1.524.023h2.646v-1.43h-1.183c-1.137 0-1.522.023-1.593.023-.117 0-.129-.012-.129-.129v-.891c0-.117.012-.129.129-.129.07 0 .456.024 1.593.024h1.183v-1.312h-.749c-1.078 0-1.44.023-1.511.023-.117 0-.13-.012-.13-.129v-.761a14.064 14.064 0 0 1-1.429.809 1 1 0 0 1-.293.1c-.082 0-.129-.082-.223-.292a2.442 2.442 0 0 0-.539-.773 10.12 10.12 0 0 0 4.534-3.538 3.689 3.689 0 0 0 .445-.844 8.135 8.135 0 0 1 1.229.246c.153.035.211.093.211.176s-.034.117-.117.175zm.773 3.608c.809 0 1.207-.012 1.395-.012a10.219 10.219 0 0 1-2.812-2.635 11.1 11.1 0 0 1-2.694 2.635c.21.012.6.012 1.276.012zm9.821-.551c-1.148 0-1.535.023-1.6.023-.117 0-.13-.012-.13-.129v-.9c0-.129.013-.129.13-.129.069 0 .456.012 1.6.012h1.184v-.762a12.755 12.755 0 0 0-.083-1.664 10.38 10.38 0 0 1 1.231.095c.117 0 .188.058.188.116a.612.612 0 0 1-.082.247 3.991 3.991 0 0 0-.071 1.183v.785h1.663c1.138 0 1.537-.012 1.618-.012.106 0 .116 0 .116.129v.9c0 .117-.01.129-.116.129-.081 0-.48-.023-1.618-.023h-1.217a11.891 11.891 0 0 0 3.257 4.007 2.992 2.992 0 0 0-.574.784c-.082.164-.129.246-.187.246s-.129-.07-.247-.187a11.55 11.55 0 0 1-2.729-3.936c0 1.054.012 2.1.023 3.01h.268c.915 0 1.209-.023 1.278-.023.118 0 .128.013.128.13v.854c0 .13-.01.141-.128.141-.069 0-.363-.023-1.278-.023h-.257c.013 1.114.036 1.886.036 2s-.014.129-.13.129h-1.007c-.129 0-.141-.012-.141-.129s.022-.9.047-2h-.212c-.913 0-1.206.023-1.276.023-.116 0-.13-.011-.13-.141v-.854c0-.117.014-.13.13-.13.07 0 .363.023 1.276.023h.224c.023-.913.035-1.956.035-3a10.952 10.952 0 0 1-2.672 3.913c-.116.105-.187.177-.245.177s-.105-.071-.187-.224a3.811 3.811 0 0 0-.528-.69v1.125c0 1.147.023 1.721.023 1.78 0 .117-.011.129-.129.129h-1c-.1 0-.116-.012-.116-.129 0-.07.022-.632.022-1.78v-2.66c0-.387 0-.855.013-1.324-.223.293-.445.586-.68.855-.083.094-.152.152-.211.152s-.093-.07-.129-.211a3.323 3.323 0 0 0-.4-1.008 10.37 10.37 0 0 0 2.227-3.807 4.071 4.071 0 0 0 .176-.833 7.974 7.974 0 0 1 1.136.364c.129.058.187.093.187.175s-.033.129-.127.211a1.114 1.114 0 0 0-.234.469 17.007 17.007 0 0 1-.763 1.71v4.745a10.838 10.838 0 0 0 3.07-4.065zm13.767-3.376c.152-.07.176-.058.223.059a9.379 9.379 0 0 0 3.8 4.323 4.027 4.027 0 0 0-.68.879c-.1.176-.151.258-.223.258s-.129-.058-.246-.153a9.712 9.712 0 0 1-1.112-.948c-.023.34-.023.75-.035 1.159a23.391 23.391 0 0 1-.293 3.281 1.518 1.518 0 0 1-1.746 1.44c-.293 0-.515 0-.8-.024-.363-.023-.353-.023-.435-.41a2.422 2.422 0 0 0-.362-.937 8.721 8.721 0 0 0 1.335.105c.492 0 .692-.187.785-.726a19.32 19.32 0 0 0 .223-2.905h-2.086a5.663 5.663 0 0 1-3.561 4.967.776.776 0 0 1-.281.094c-.094 0-.129-.082-.245-.281a2.24 2.24 0 0 0-.6-.7 4.512 4.512 0 0 0 3.387-4.076h-.141c-1.1 0-1.478.023-1.547.023-.117 0-.13-.012-.13-.129v-.854a12.476 12.476 0 0 1-1.136.972c-.13.094-.2.153-.257.153-.083 0-.13-.083-.248-.258a2.613 2.613 0 0 0-.655-.715 9.15 9.15 0 0 0 3.387-3.866 3.364 3.364 0 0 0 .233-.75 8.164 8.164 0 0 1 1.219.411c.129.058.164.117.164.2a.241.241 0 0 1-.094.176.939.939 0 0 0-.27.375 10.572 10.572 0 0 1-2.145 3.1c.165.011.574.023 1.478.023h3.15c1.02 0 1.405-.012 1.523-.023a12.355 12.355 0 0 1-2.519-3.714c-.047-.129-.023-.14.105-.2zm7.796 3.211a8.207 8.207 0 0 0 1.486 2.355 3.019 3.019 0 0 0-.4.773c-.047.129-.094.2-.141.2s-.1-.059-.176-.176a9.829 9.829 0 0 1-.866-1.676c.011 3.081.081 5.483.081 5.694 0 .117-.012.129-.128.129h-.961c-.117 0-.129-.012-.129-.129 0-.2.069-2.425.082-5.143a9.926 9.926 0 0 1-1.242 2.578c-.083.117-.141.176-.187.176s-.083-.059-.13-.187a3.5 3.5 0 0 0-.4-.891 9.79 9.79 0 0 0 1.851-3.7h-.21c-.867 0-1.16.023-1.229.023-.118 0-.13-.011-.13-.141v-.832c0-.105.012-.117.13-.117.069 0 .362.024 1.229.024h.281v-.785a8.792 8.792 0 0 0-.094-1.593 11.258 11.258 0 0 1 1.172.082c.116.011.2.058.2.116a.564.564 0 0 1-.07.247 2.983 2.983 0 0 0-.083 1.136v.8h.153c.878 0 1.158-.024 1.229-.024.129 0 .141.011.141.117v.832c0 .129-.012.141-.141.141-.071 0-.352-.023-1.229-.023zm3.127 1.5a12.712 12.712 0 0 1-.386 3.246 7.338 7.338 0 0 1-1.148 2.284c-.106.129-.164.2-.234.2s-.141-.07-.27-.187a2.874 2.874 0 0 0-.714-.551 4.952 4.952 0 0 0 1.265-2.237 12.271 12.271 0 0 0 .315-3.21v-1.546c0-.7-.011-1.277-.069-1.909a5.034 5.034 0 0 1 1.066.281 13.076 13.076 0 0 0 2.775-.832 2.45 2.45 0 0 0 .646-.375 5.568 5.568 0 0 1 .784.866.364.364 0 0 1 .094.211c0 .082-.071.14-.187.14a1 1 0 0 0-.456.117 17.1 17.1 0 0 1-3.481.925v1.477h3.094c.96 0 1.288-.023 1.348-.023.128 0 .141.012.141.129v.891c0 .117-.013.129-.141.129-.06 0-.388-.024-1.348-.024h-.165v4.206c0 .938.024 1.394.024 1.453 0 .117-.012.128-.128.128h-.984c-.117 0-.131-.012-.131-.128 0-.07.024-.516.024-1.453v-4.206zm-36.351 15.319c-.117.117-.187.176-.246.176s-.116-.071-.233-.234a2.387 2.387 0 0 0-.562-.48 6.3 6.3 0 0 0 .539-.55h-.023c-.06 0-.364-.023-1.266-.023h-.82c-.012.444-.012.866-.035 1.265h1.148c.5 0 .632-.023.7-.023.117 0 .141.023.141.141-.023.363-.023.738-.035 1.265a14.745 14.745 0 0 1-.327 4.125 1.147 1.147 0 0 1-1.219.9c-.176 0-.328 0-.492-.012-.187-.012-.211-.023-.246-.316a2.973 2.973 0 0 0-.27-.891 4.6 4.6 0 0 0 .762.07c.34 0 .41-.117.516-.656a23.213 23.213 0 0 0 .176-3.538h-.9a11.027 11.027 0 0 1-1.3 5.155c-.083.141-.141.2-.211.2s-.117-.058-.2-.187a2.444 2.444 0 0 0-.656-.75c1.2-1.676 1.3-3.714 1.336-6.748-.691.011-.948.023-1.008.023-.1 0-.117-.012-.117-.142v-.855c0-.117.013-.128.117-.128.07 0 .364.022 1.277.022h.48v-.6a5.051 5.051 0 0 0-.082-1.136c.434.012.809.023 1.229.058.13.012.211.059.211.129a.472.472 0 0 1-.081.222 1.951 1.951 0 0 0-.07.727v.6c.878 0 1.183-.022 1.253-.022.117 0 .13.011.13.128v.867a5.968 5.968 0 0 0 1.065-2.015 2.723 2.723 0 0 0 .164-.762c.375.059.691.106 1.03.188.153.047.2.094.2.141a.262.262 0 0 1-.07.152 1.34 1.34 0 0 0-.223.469l-.234.633h2.718c.949 0 1.266-.023 1.335-.023.118 0 .13.012.13.129v.855c0 .117-.012.129-.13.129-.069 0-.386-.023-1.335-.023h-3.245a6.883 6.883 0 0 1-.609.866c.3.011.563.023.867.059.128 0 .188.047.188.1a.467.467 0 0 1-.06.211 1.951 1.951 0 0 0-.058.692v.421l.82-.21v-.095a12 12 0 0 0-.07-1.663 7.885 7.885 0 0 1 1.078.083c.116.011.175.058.175.128a.868.868 0 0 1-.059.234 3.309 3.309 0 0 0-.069 1.042l.69-.174c.973-.259 1.324-.4 1.418-.411.07-.011.095.035.095.117-.014.152-.014.363-.024.644a17.433 17.433 0 0 1-.234 2.647.918.918 0 0 1-.716.68 2.387 2.387 0 0 1-.62.023c-.176 0-.2-.035-.211-.246a2.147 2.147 0 0 0-.223-.808 2.352 2.352 0 0 0 .539.058.262.262 0 0 0 .293-.246 11.457 11.457 0 0 0 .129-1.57l-1.136.3v1.523c0 .878.023 1.288.023 1.358 0 .117-.013.129-.141.129h-.833c-.117 0-.128-.036-.128-.153 0-.07.023-.457.023-1.335v-1.253l-.82.21v2.589c0 .469.023.633.152.727a3.008 3.008 0 0 0 1.358.141c1.1 0 1.465-.035 1.641-.2.21-.175.27-.386.281-1.241a3.073 3.073 0 0 0 .8.3c.294.094.294.094.271.41-.082 1.042-.3 1.219-.669 1.488a5.424 5.424 0 0 1-2.471.328c-1.266 0-1.7-.047-2.027-.258-.258-.175-.4-.375-.4-1.055v-2.952c-.362.106-.48.152-.527.164-.129.036-.152 0-.187-.117l-.2-.761c-.023-.083-.011-.1.094-.129.07-.011.316-.058.82-.175v-.55a8.792 8.792 0 0 0-.035-1.008zm8.802-1.921a7.7 7.7 0 0 1-.89 1.136c-.129.129-.187.2-.258.2s-.141-.07-.281-.2a3.019 3.019 0 0 0-.668-.492 6.115 6.115 0 0 0 1.559-2.05 3.067 3.067 0 0 0 .211-.645c.386.047.761.129 1.089.188.13.035.188.07.188.164s-.058.141-.141.187-.105.117-.187.293l-.1.247h1.241c1 0 1.323-.023 1.395-.023.116 0 .129.011.129.128v.762c0 .117-.013.129-.129.129-.071 0-.387-.023-1.406-.023a6.262 6.262 0 0 1 .422.843c.047.118.047.141-.117.176l-.809.2c-.176.047-.2.023-.233-.094a6.641 6.641 0 0 0-.435-1.124zm5.671 3.28c1.148 0 1.558-.023 1.641-.023.1 0 .117.012.117.129 0 .07-.023.234-.023.6v.152c0 .328.023.7.023.961a.773.773 0 0 1-.281.714 2.256 2.256 0 0 1-1.266.211c-.375 0-.4 0-.469-.363a1.9 1.9 0 0 0-.211-.6c.375.023.609.036.738.036.258 0 .316-.07.316-.3v-.551h-2.39v.563a9.457 9.457 0 0 0 4.9 2.542 3.905 3.905 0 0 0-.491.773c-.118.223-.153.3-.247.3a.88.88 0 0 1-.281-.07 9.017 9.017 0 0 1-3.913-2.355c.013 1.382.06 2.343.06 2.577 0 .117-.013.129-.13.129h-.961c-.1 0-.116-.012-.116-.129 0-.234.047-1.136.059-2.507a10.539 10.539 0 0 1-3.772 2.308.88.88 0 0 1-.281.07c-.106 0-.152-.083-.258-.3a3.45 3.45 0 0 0-.492-.691 10.356 10.356 0 0 0 4.769-2.636v-.574h-2.19v.984c0 .469.023.656.023.726 0 .117-.013.129-.117.129h-.961c-.117 0-.13-.012-.13-.129 0-.082.023-.281.023-.844v-.867c0-.551-.023-.773-.023-.855 0-.117.013-.129.13-.129.081 0 .492.023 1.64.023h1.605v-.6h-2.729c-1.078 0-1.441.023-1.512.023-.129 0-.141-.012-.141-.129v-.82c0-.117.012-.129.141-.129.07 0 .434.023 1.512.023h2.729a4.312 4.312 0 0 0-.07-.879c.363.012.715.047 1.078.083l-.118-.094a2.666 2.666 0 0 0-.655-.363 5.689 5.689 0 0 0 1.16-1.8 3.273 3.273 0 0 0 .175-.632c.328.047.8.129 1.043.176.117.035.176.07.176.164s-.047.129-.129.187-.094.129-.164.329a1.54 1.54 0 0 0-.082.211h1.746c1.1 0 1.487-.023 1.558-.023.117 0 .129.011.129.128v.762c0 .117-.012.129-.129.129-.07 0-.457-.023-1.558-.023h-.3a4.983 4.983 0 0 1 .445.855c.047.117.034.14-.106.175l-.773.188c-.175.047-.21.023-.245-.094a6.609 6.609 0 0 0-.516-1.124h-.727a7.117 7.117 0 0 1-.515.714.705.705 0 0 1-.188.211.085.085 0 0 1 .047.07.387.387 0 0 1-.059.188 1.212 1.212 0 0 0-.058.469h2.869c1.078 0 1.441-.023 1.512-.023.129 0 .141.012.141.129v.82c0 .117-.012.129-.141.129-.07 0-.434-.023-1.512-.023h-2.869v.6zm6.585 1.565c0 1.125.034 1.758.034 2.344 0 .645-.094.961-.375 1.16a2.07 2.07 0 0 1-1.287.258c-.364.012-.364.012-.458-.352a3.637 3.637 0 0 0-.281-.844 6.775 6.775 0 0 0 .854.035c.294 0 .364-.105.364-.445v-2.309c-.177.059-.339.118-.5.165a1.308 1.308 0 0 0-.411.2.3.3 0 0 1-.187.071c-.071 0-.118-.047-.141-.141a8.866 8.866 0 0 1-.2-1.125 7.26 7.26 0 0 0 1.065-.222l.375-.106v-2.189h-.151c-.8 0-1.031.024-1.1.024-.117 0-.129-.012-.129-.129v-.855c0-.118.012-.129.129-.129.07 0 .3.023 1.1.023h.151v-.621a11.113 11.113 0 0 0-.083-1.664c.434.012.786.036 1.2.082.1.013.188.06.188.129a.6.6 0 0 1-.083.247 3.592 3.592 0 0 0-.07 1.183v.645c.69 0 .925-.023 1-.023.117 0 .129.011.129.129v.855c0 .117-.012.129-.129.129-.07 0-.3-.024-1-.024v1.817c.327-.129.667-.259 1.008-.422-.024.234-.036.491-.048.761 0 .386-.012.363-.352.516l-.608.269zm2.928-.854c-1.112 0-1.511.023-1.581.023-.117 0-.129-.012-.129-.117v-.8c0-.128.012-.141.129-.141.07 0 .469.023 1.581.023h3.445c1.125 0 1.511-.023 1.581-.023.13 0 .141.012.141.141v.8c0 .1-.011.117-.141.117-.07 0-.456-.023-1.581-.023h-1.265v1.113h1.042c.819 0 1.113-.024 1.194-.024.117 0 .13.013.13.129v.762c0 .117-.013.129-.13.129-.081 0-.375-.023-1.194-.023h-1.042v1.23a11.93 11.93 0 0 0 1.7.117c.539 0 1.032-.012 1.57-.047a2.867 2.867 0 0 0-.211.75c-.047.387-.094.4-.433.4h-.8c-2.191-.035-3.608-.4-4.522-1.687a5.713 5.713 0 0 1-1.113 1.594c-.105.105-.176.164-.234.164-.082 0-.151-.07-.27-.211a2.288 2.288 0 0 0-.609-.539 4.6 4.6 0 0 0 1.7-2.835 3.843 3.843 0 0 0 .093-.667c.376.082.634.14.962.234.152.046.222.082.222.175a.284.284 0 0 1-.093.2.912.912 0 0 0-.117.3c-.059.2-.105.4-.164.586a2.7 2.7 0 0 0 1.171 1.125v-2.976zm2.731-5.635c1.019 0 1.357-.023 1.428-.023.117 0 .13.012.13.141 0 .07-.023.363-.023 1.066v1.629c0 .691.023 1 .023 1.065 0 .117-.013.128-.13.128-.07 0-.409-.023-1.428-.023h-2.285c-1.031 0-1.371.023-1.441.023-.117 0-.128-.011-.128-.128 0-.082.022-.375.022-1.065v-1.624c0-.7-.022-1-.022-1.066 0-.128.011-.141.128-.141.07 0 .41.023 1.441.023zm-2.7.9v.68h3.082v-.68zm3.082 1.511h-3.082v.691h3.082zm11.283.885a5.168 5.168 0 0 1-1.091 1.148c.913.246 1.841.527 2.825.866.057.023.094.047.094.083a.281.281 0 0 1-.071.128l-.469.622c-.094.14-.129.14-.247.093-1.054-.421-2.109-.819-3.2-1.147a6.557 6.557 0 0 1-1.254.457c.375.012.7.047 1.066.083.117.011.175.07.175.128a1.956 1.956 0 0 1-.069.3 2.123 2.123 0 0 0-.047.457h3.035c1.041 0 1.406-.023 1.476-.023.128 0 .141.012.141.129v.761c0 .117-.013.129-.141.129-.069 0-.435-.023-1.476-.023h-2.216a10.813 10.813 0 0 0 4.1 1.582 2.888 2.888 0 0 0-.491.785c-.141.34-.165.328-.516.234a9.157 9.157 0 0 1-3.937-2.155c.013 1.183.047 2.027.047 2.261 0 .117-.011.128-.128.128h-.961c-.117 0-.129-.011-.129-.128 0-.234.046-1.031.059-2.238a10.222 10.222 0 0 1-3.819 2.143 1.233 1.233 0 0 1-.27.059c-.1 0-.152-.07-.259-.27a2.827 2.827 0 0 0-.491-.713 11.389 11.389 0 0 0 3.949-1.687h-2.016c-1.043 0-1.406.023-1.476.023-.13 0-.142-.012-.142-.129v-.761c0-.117.012-.129.142-.129.069 0 .433.023 1.476.023h2.882a7.64 7.64 0 0 0-.083-.937 18.118 18.118 0 0 1-3.232.457c-.294.023-.328.011-.422-.247a2.394 2.394 0 0 0-.386-.691 18.753 18.753 0 0 0 3.865-.433 24.676 24.676 0 0 0-1.1-.234 3.156 3.156 0 0 1-.234.211c-.082.083-.105.083-.293.023l-.667-.211c-.165-.046-.152-.129-.07-.2.2-.175.421-.41.621-.61l.316-.351h-1.02c-1.066 0-1.431.023-1.5.023-.129 0-.141-.011-.141-.117v-.714c0-.117.012-.129.141-.129.069 0 .434.023 1.5.023h1.722l.059-.094a4.665 4.665 0 0 0 .422-.8c.421.058.785.128 1.137.211.081.023.141.07.141.152 0 .058-.07.117-.153.164a1.143 1.143 0 0 0-.328.363h3.81c1.065 0 1.429-.023 1.5-.023.116 0 .128.012.128.129v.714c0 .106-.012.117-.128.117-.071 0-.435-.023-1.5-.023zm-6.374-1.335c0 .1-.012.116-.13.116h-.937c-.128 0-.142-.011-.142-.116 0-.083.024-.164.024-.891v-.187c0-.187-.024-.293-.024-.364 0-.117.014-.128.142-.128.07 0 .468.023 1.582.023h2.378a3.97 3.97 0 0 0-.082-.844c.422 0 .844.023 1.253.059.106.011.177.058.177.116a.61.61 0 0 1-.07.234 1.255 1.255 0 0 0-.047.434h2.541c1.1 0 1.5-.023 1.584-.023.116 0 .128.011.128.128 0 .07-.024.176-.024.328v.223c0 .727.024.819.024.891 0 .1-.012.116-.128.116h-.95c-.118 0-.128-.011-.128-.116v-.609h-7.171zm2.564 1.335a5.331 5.331 0 0 1-.386.48c.633.1 1.254.234 1.863.363a4.331 4.331 0 0 0 1.043-.843z" fill="#00a0e9"/><path d="M218.021 90.795h-1.65l-.773-2.672h-2.789l-.783 2.672h-1.5l2.788-9.091h1.909zm-3.233-5.682c-.2-.715-.341-1.383-.539-2.238h-.105c-.2.868-.363 1.523-.562 2.226l-.493 1.852h2.227zm5.883.375a2.619 2.619 0 0 1 2.108-1.266 1.761 1.761 0 0 1 1.839 1.933v4.64h-1.511v-4.229c0-.739-.316-1.078-.891-1.078a1.97 1.97 0 0 0-1.5 1.089v4.218h-1.477v-6.432h1.43zm5.624.491a2.472 2.472 0 0 1 2.659-1.769c1.663 0 2.5.7 2.5 2.132v2.554a17.064 17.064 0 0 0 .105 1.9H230.2a8.566 8.566 0 0 1-.1-.844 2.414 2.414 0 0 1-2.027 1 1.827 1.827 0 0 1-1.979-1.91c0-1.125.7-1.852 2.1-2.121a12.285 12.285 0 0 1 1.84-.187v-.364c0-.808-.34-1.136-1.114-1.136a1.225 1.225 0 0 0-1.229 1.125zm3.726 1.664a6.656 6.656 0 0 0-1.477.188c-.691.164-1.055.515-1.055 1.089a.911.911 0 0 0 1.031.973 1.754 1.754 0 0 0 1.5-1.054zm4.758 3.153h-1.477V81.54h1.477zm4.69.233a2.474 2.474 0 0 1-2.588 2.027 5 5 0 0 1-.8-.059l-.06-1.125a4.273 4.273 0 0 0 .82.082 1.221 1.221 0 0 0 1.219-1l.094-.281-2.18-6.315h1.559l.762 2.695c.211.738.351 1.359.539 2.109h.116c.2-.727.364-1.382.575-2.132l.737-2.672h1.464zm6.699-4.769a1.151 1.151 0 0 0-1.148-1.03c-.633 0-1.008.3-1.008.691 0 .5.211.714 1.148.96l.539.141c1.464.386 1.991.914 1.991 1.957 0 1.148-.855 1.98-2.6 1.98a2.512 2.512 0 0 1-2.684-1.605l1.371-.48a1.357 1.357 0 0 0 1.348 1.078c.843 0 1.171-.363 1.171-.832 0-.527-.222-.667-1.241-.96l-.539-.152c-1.394-.375-1.886-.879-1.886-1.957 0-1.031.844-1.828 2.413-1.828a2.384 2.384 0 0 1 2.519 1.641zm4.523-3.045h-1.593v-1.514h1.593zm-.059 7.58h-1.476v-6.432h1.476zm5.133-4.535a1.151 1.151 0 0 0-1.148-1.03c-.633 0-1.008.3-1.008.691 0 .5.211.714 1.148.96l.539.141c1.465.386 1.991.914 1.991 1.957 0 1.148-.854 1.98-2.6 1.98a2.509 2.509 0 0 1-2.683-1.605l1.37-.48a1.357 1.357 0 0 0 1.348 1.078c.844 0 1.172-.363 1.172-.832 0-.527-.223-.667-1.241-.96l-.539-.152c-1.395-.375-1.887-.879-1.887-1.957 0-1.031.844-1.828 2.413-1.828a2.384 2.384 0 0 1 2.52 1.641z" fill="#fff"/><g fill="#00a0e9"><path d="M357.842 78.238a4.088 4.088 0 0 0-4.076-4.076h-65.215a4.089 4.089 0 0 0-4.076 4.076v18.851h73.367z"/><path d="M358.609 97.855h-74.9V78.239a4.845 4.845 0 0 1 4.84-4.84h65.215a4.845 4.845 0 0 1 4.84 4.84zm-73.366-1.528h71.839V78.24a3.316 3.316 0 0 0-3.312-3.312h-65.215a3.316 3.316 0 0 0-3.312 3.312z"/></g><path d="M284.475 97.089v64.7a4.088 4.088 0 0 0 4.076 4.076h65.215a4.087 4.087 0 0 0 4.076-4.076v-64.7z" fill="#fff"/><path d="M353.765 166.635H288.55a4.846 4.846 0 0 1-4.84-4.84v-65.47h74.899v65.469a4.846 4.846 0 0 1-4.844 4.841zm-68.526-68.781v63.94a3.316 3.316 0 0 0 3.312 3.312h65.215a3.316 3.316 0 0 0 3.313-3.312v-63.94z" fill="#00a0e9"/><path d="M298.74 120.604c-.117.117-.187.176-.247.176s-.116-.071-.234-.234a2.325 2.325 0 0 0-.562-.48 5.861 5.861 0 0 0 .54-.55h-.024c-.058 0-.362-.023-1.265-.023h-.82c-.011.445-.011.867-.035 1.265h1.149c.5 0 .632-.023.7-.023.117 0 .141.023.141.141-.023.363-.023.738-.035 1.265a14.771 14.771 0 0 1-.328 4.125 1.144 1.144 0 0 1-1.219.9c-.176 0-.328 0-.492-.012-.187-.012-.211-.023-.245-.316a2.939 2.939 0 0 0-.271-.891 4.661 4.661 0 0 0 .763.07c.339 0 .409-.117.516-.656a23.417 23.417 0 0 0 .175-3.538h-.9a11.011 11.011 0 0 1-1.3 5.155c-.082.141-.141.2-.212.2s-.116-.059-.2-.187a2.482 2.482 0 0 0-.656-.75c1.2-1.676 1.3-3.714 1.336-6.748-.691.011-.95.023-1.008.023-.105 0-.117-.012-.117-.141v-.855c0-.117.012-.129.117-.129.07 0 .363.023 1.276.023h.481v-.6a5.11 5.11 0 0 0-.082-1.136c.434.013.809.023 1.229.058.128.012.211.059.211.129a.466.466 0 0 1-.083.223 1.983 1.983 0 0 0-.069.727v.6c.879 0 1.184-.023 1.255-.023.116 0 .127.012.127.129v.867a5.941 5.941 0 0 0 1.067-2.014 2.759 2.759 0 0 0 .163-.763c.376.06.691.106 1.031.188.151.046.2.094.2.141a.254.254 0 0 1-.069.152 1.375 1.375 0 0 0-.223.469l-.234.633h2.719c.948 0 1.266-.023 1.335-.023.118 0 .129.012.129.129v.855c0 .117-.011.129-.129.129-.069 0-.387-.022-1.335-.022h-3.246a6.95 6.95 0 0 1-.609.866c.3.011.563.023.867.059.129 0 .188.047.188.105a.479.479 0 0 1-.059.211 1.912 1.912 0 0 0-.059.691v.421l.82-.21v-.094a12 12 0 0 0-.07-1.663 7.948 7.948 0 0 1 1.078.082c.116.011.176.058.176.129a.863.863 0 0 1-.06.234 3.347 3.347 0 0 0-.069 1.042l.69-.175c.973-.258 1.324-.4 1.417-.41.071-.012.1.035.1.117-.013.152-.013.363-.024.644a17.308 17.308 0 0 1-.234 2.647.917.917 0 0 1-.714.68 2.45 2.45 0 0 1-.622.023c-.175 0-.2-.035-.211-.246a2.144 2.144 0 0 0-.222-.808 2.366 2.366 0 0 0 .539.058.262.262 0 0 0 .292-.245 11.416 11.416 0 0 0 .13-1.57l-1.137.3v1.523c0 .878.022 1.288.022 1.358 0 .117-.011.129-.14.129h-.831c-.118 0-.13-.036-.13-.153 0-.07.023-.457.023-1.335v-1.254l-.82.21v2.589c0 .469.023.633.152.727a3.014 3.014 0 0 0 1.359.14c1.1 0 1.464-.034 1.641-.2.21-.175.269-.386.281-1.242a3.04 3.04 0 0 0 .8.305c.292.094.292.094.269.41-.081 1.042-.3 1.218-.668 1.488a5.432 5.432 0 0 1-2.472.328c-1.266 0-1.7-.047-2.026-.258-.259-.176-.4-.375-.4-1.055v-2.952c-.363.106-.481.152-.528.164-.128.036-.151 0-.187-.117l-.2-.761c-.023-.083-.012-.105.094-.129.07-.011.316-.058.82-.175v-.551a8.788 8.788 0 0 0-.035-1.008zm8.8-1.92a7.706 7.706 0 0 1-.891 1.136c-.128.129-.187.2-.258.2s-.141-.07-.281-.2a3.032 3.032 0 0 0-.667-.492 6.119 6.119 0 0 0 1.558-2.05 2.95 2.95 0 0 0 .211-.645c.387.048.762.129 1.09.188.129.035.188.07.188.164s-.059.141-.141.187-.105.117-.187.293l-.105.247h1.242c1 0 1.323-.023 1.395-.023.116 0 .128.011.128.128v.762c0 .116-.012.129-.128.129-.071 0-.388-.023-1.406-.023a6.227 6.227 0 0 1 .422.843c.047.118.047.141-.117.176l-.81.2c-.175.047-.2.023-.233-.094a6.651 6.651 0 0 0-.434-1.124zm5.67 3.28c1.148 0 1.559-.023 1.641-.023.105 0 .117.011.117.128 0 .07-.023.234-.023.6v.152c0 .328.023.7.023.961a.772.772 0 0 1-.281.714 2.249 2.249 0 0 1-1.266.211c-.374 0-.4 0-.469-.363a1.885 1.885 0 0 0-.211-.6c.375.023.609.036.739.036.258 0 .315-.07.315-.3v-.55h-2.39v.563a9.463 9.463 0 0 0 4.9 2.542 3.912 3.912 0 0 0-.492.773c-.117.223-.152.3-.246.3a.874.874 0 0 1-.281-.07 9.012 9.012 0 0 1-3.913-2.355c.012 1.383.059 2.344.059 2.578 0 .117-.011.129-.129.129h-.96c-.106 0-.117-.012-.117-.129 0-.234.047-1.136.058-2.507a10.523 10.523 0 0 1-3.772 2.309.869.869 0 0 1-.281.07c-.1 0-.151-.083-.258-.3a3.391 3.391 0 0 0-.492-.691 10.359 10.359 0 0 0 4.77-2.636v-.574h-2.191v.984c0 .469.023.655.023.726 0 .117-.012.129-.117.129h-.961c-.117 0-.129-.012-.129-.129 0-.082.023-.28.023-.844v-.866c0-.551-.023-.773-.023-.856 0-.117.012-.128.129-.128.082 0 .492.023 1.641.023h1.605v-.6h-2.73c-1.078 0-1.44.023-1.511.023-.13 0-.141-.011-.141-.128v-.82c0-.117.011-.129.141-.129.07 0 .433.023 1.511.023h2.73a4.386 4.386 0 0 0-.07-.879c.362.013.714.047 1.078.083l-.118-.095a2.735 2.735 0 0 0-.655-.363 5.674 5.674 0 0 0 1.159-1.8 3.194 3.194 0 0 0 .176-.632c.328.047.8.129 1.043.176.116.035.176.07.176.164s-.047.129-.13.187-.093.129-.164.329a1.642 1.642 0 0 0-.081.211h1.745c1.1 0 1.488-.023 1.559-.023.117 0 .129.011.129.128v.762c0 .116-.012.129-.129.129-.07 0-.458-.023-1.559-.023h-.3a4.784 4.784 0 0 1 .445.855c.047.116.035.14-.1.175l-.774.188c-.176.047-.21.023-.246-.094a6.546 6.546 0 0 0-.516-1.124h-.726a7.355 7.355 0 0 1-.516.714.687.687 0 0 1-.187.211.085.085 0 0 1 .047.07.386.386 0 0 1-.059.188 1.186 1.186 0 0 0-.059.469h2.871c1.077 0 1.439-.023 1.51-.023.13 0 .142.012.142.129v.82c0 .117-.012.128-.142.128-.07 0-.433-.023-1.51-.023h-2.871v.6zm6.085 2.272c-1.077 0-1.441.023-1.512.023-.117 0-.128-.011-.128-.129v-.761c0-.128.011-.141.128-.141.07 0 .435.023 1.512.023h2.542a4.422 4.422 0 0 0 .082-.714h-1.125c-1.124 0-1.522.023-1.593.023-.117 0-.129-.012-.129-.128v-.739c0-.129.012-.139.129-.139.07 0 .469.022 1.593.022h1.16v-.691h-1.078c-1.089 0-1.476.023-1.547.023-.116 0-.128-.012-.128-.141v-.727c0-.129.012-.141.128-.141.071 0 .458.023 1.547.023h1.067c-.014-.362-.047-.644-.071-.867.386.013.844.023 1.2.072.141.023.211.07.211.152a.728.728 0 0 1-.07.245.927.927 0 0 0-.06.4h1.208c1.078 0 1.464-.023 1.533-.023.13 0 .142.011.142.141v.727c0 .128-.012.141-.142.141-.069 0-.455-.023-1.533-.023h-1.208v.691h1.266c1.137 0 1.512-.022 1.582-.022.128 0 .142.01.142.139v.739c0 .116-.014.128-.142.128-.07 0-.445-.023-1.582-.023h-1.288c-.012.258-.047.492-.071.714h2.953c1.078 0 1.441-.023 1.512-.023.128 0 .141.012.141.141v.761c0 .118-.013.129-.141.129-.07 0-.434-.023-1.512-.023h-2.448a6.51 6.51 0 0 0 4.429 1.886 2.828 2.828 0 0 0-.446.878c-.069.247-.105.317-.234.317a1.2 1.2 0 0 1-.257-.023 6.542 6.542 0 0 1-4.465-2.566 2.954 2.954 0 0 1-.28.41 6.575 6.575 0 0 1-4.007 2.132 2.036 2.036 0 0 1-.269.048c-.094 0-.142-.083-.224-.317a2.513 2.513 0 0 0-.445-.8c1.968-.28 3.445-.949 4.03-1.792l.105-.175zm6.584-6.443c1.089 0 1.476-.023 1.547-.023.116 0 .129.011.129.128 0 .06-.024.271-.024.586v.492c0 1.019.024 1.206.024 1.264 0 .117-.013.129-.129.129h-.961c-.117 0-.129-.012-.129-.129v-1.417h-7.439v1.417c0 .117-.012.129-.141.129h-.949c-.117 0-.129-.012-.129-.129 0-.058.024-.246.024-1.264v-.4c0-.41-.024-.621-.024-.68 0-.117.012-.128.129-.128.082 0 .469.023 1.547.023h2.554v-.06a4.66 4.66 0 0 0-.094-1.112c.434.011.866.034 1.266.07.129.011.188.059.188.106a.656.656 0 0 1-.071.234 2.224 2.224 0 0 0-.058.7v.06zm4.793 6.291c0-.409.023-1 .034-1.464-.292.281-.585.55-.9.808-.117.094-.187.152-.246.152s-.105-.07-.164-.246a2.507 2.507 0 0 0-.422-.832 10.913 10.913 0 0 0 2.437-2.554 5.8 5.8 0 0 0 .317-.608 6.836 6.836 0 0 1 .877.573c.107.094.142.141.142.211a.174.174 0 0 1-.081.128.813.813 0 0 0-.247.27c-.175.258-.352.516-.539.761v4.522c0 .938.024 1.383.024 1.441 0 .117-.013.128-.129.128h-1c-.118 0-.129-.011-.129-.128 0-.07.023-.5.023-1.441zm1.979-6.877c.106.082.164.129.164.211s-.07.129-.176.189a1.638 1.638 0 0 0-.316.327 11.489 11.489 0 0 1-2.261 2 .512.512 0 0 1-.258.117c-.081 0-.129-.082-.224-.27a2.708 2.708 0 0 0-.526-.727 9.306 9.306 0 0 0 2.3-1.886 3.257 3.257 0 0 0 .339-.539 5.509 5.509 0 0 1 .959.578zm2.039 4.159c-1.113 0-1.5.023-1.582.023-.116 0-.129-.011-.129-.128v-.925c0-.117.013-.129.129-.129.082 0 .469.023 1.582.023h3.351c1.113 0 1.5-.023 1.56-.023.116 0 .128.012.128.129v.925c0 .117-.012.128-.128.128-.06 0-.446-.023-1.56-.023h-.245v2.214c0 1.043.034 1.7.034 2.215a1.3 1.3 0 0 1-.4 1.172c-.257.223-.7.27-1.852.281-.374 0-.374.011-.456-.363a2.984 2.984 0 0 0-.352-.9c.479.035.831.047 1.266.047.4 0 .516-.082.516-.375v-4.289zm.469-2.893c-1.031 0-1.384.023-1.441.023-.117 0-.13-.011-.13-.128v-.938c0-.117.013-.129.13-.129.058 0 .41.023 1.441.023h2.437c1.043 0 1.383-.023 1.453-.023.13 0 .141.012.141.129v.938c0 .117-.011.128-.141.128-.07 0-.41-.023-1.453-.023zm12.059 3.537a1.172 1.172 0 1 1-1.172-1.171 1.176 1.176 0 0 1 1.172 1.171zm-46.532 17.838c0 1.113.036 1.746.036 2.332 0 .656-.106.961-.388 1.171-.258.188-.492.247-1.206.247-.364 0-.364.012-.458-.34a3.63 3.63 0 0 0-.281-.867 5.432 5.432 0 0 0 .763.047c.292 0 .388-.118.388-.445v-2.285l-.435.152a1.58 1.58 0 0 0-.411.188.4.4 0 0 1-.186.07c-.072 0-.119-.047-.141-.14a8.161 8.161 0 0 1-.2-1.113 8.445 8.445 0 0 0 1.065-.234l.307-.082v-2.214h-.13c-.761 0-.984.023-1.054.023-.118 0-.129-.012-.129-.129v-.854c0-.118.011-.129.129-.129.069 0 .293.023 1.054.023h.13v-.621a10.887 10.887 0 0 0-.1-1.651c.422.011.785.035 1.2.082.105.011.176.058.176.117a.555.555 0 0 1-.07.247 4.278 4.278 0 0 0-.059 1.183v.645c.634 0 .845-.023.913-.023.119 0 .13.011.13.129v.854c0 .117-.011.129-.13.129-.068 0-.279-.023-.913-.023v1.828c.352-.14.7-.281 1.066-.445a7.51 7.51 0 0 0-.06.75c0 .375 0 .363-.339.516-.224.105-.444.2-.668.293zm5.975-1.3a6.668 6.668 0 0 0 .4 1.476c.224-.175.434-.375.656-.585a2.767 2.767 0 0 0 .387-.48c.223.223.469.48.656.7a.244.244 0 0 1 .082.175c0 .083-.047.118-.129.129a.782.782 0 0 0-.351.223 10.2 10.2 0 0 1-.891.691 4.421 4.421 0 0 0 1.651 1.664 2.7 2.7 0 0 0-.516.761c-.082.176-.129.257-.211.257-.059 0-.141-.058-.269-.152a7.543 7.543 0 0 1-2.484-4.862h-.656v3.375c.469-.105.948-.246 1.5-.422a2.59 2.59 0 0 0-.083.7c0 .375 0 .364-.351.469-.75.234-1.431.41-2.238.585a1.235 1.235 0 0 0-.421.164.338.338 0 0 1-.188.07c-.082 0-.141-.047-.163-.164a16.373 16.373 0 0 1-.259-1.054 9.893 9.893 0 0 0 1.09-.129v-3.6h-.668a18.694 18.694 0 0 1-.163 1.664 9.18 9.18 0 0 1-1.042 3.058c-.083.14-.119.21-.177.21s-.117-.07-.224-.187a3.247 3.247 0 0 0-.714-.621 6.058 6.058 0 0 0 1.067-2.871 22.329 22.329 0 0 0 .2-3.328c0-1.933-.023-2.777-.023-2.847 0-.129.013-.141.128-.141.072 0 .469.023 1.57.023h3.164c1.112 0 1.487-.023 1.558-.023.117 0 .129.012.129.141v.867c0 .117-.012.129-.129.129-.07 0-.445-.023-1.558-.023h-3.714v1.875c0 .363 0 .7-.011 1.031h3.83c1.078 0 1.44-.023 1.511-.023.129 0 .141.012.141.129v.832c0 .117-.012.129-.141.129-.07 0-.433-.023-1.511-.023zm-1.468-2.029c-.9 0-1.171.023-1.242.023-.117 0-.129-.012-.129-.129v-.82c0-.117.012-.129.129-.129.071 0 .34.023 1.242.023h1.523c.9 0 1.172-.023 1.241-.023.117 0 .129.012.129.129v.82c0 .117-.012.129-.129.129-.069 0-.34-.023-1.241-.023zm8.757-2.762c.152.058.223.128.223.234a.267.267 0 0 1-.082.187 1.367 1.367 0 0 0-.212.551c-.163.8-.257 1.628-.328 2.238a12.083 12.083 0 0 0-.034 1.289c.258-.457.5-.9.82-1.5a2.385 2.385 0 0 0 .363.762.267.267 0 0 1 .069.188.552.552 0 0 1-.117.292 9.6 9.6 0 0 0-.69 1.5 1.466 1.466 0 0 0-.06.352.164.164 0 0 1-.151.188c-.141.035-.645.105-.937.14-.083.012-.142-.07-.165-.152a7.491 7.491 0 0 1-.352-2.378 24.379 24.379 0 0 1 .282-2.917 10.851 10.851 0 0 0 .093-1.336 6.126 6.126 0 0 1 1.278.362zm3.807-.2c.234.059.259.118.234.317a4.316 4.316 0 0 0-.022.539c.081 1.113.165 2.179.165 3.022a7.7 7.7 0 0 1-.892 4.066 6.464 6.464 0 0 1-1.933 1.886.412.412 0 0 1-.235.082.338.338 0 0 1-.245-.129 2.716 2.716 0 0 0-1-.539 5.811 5.811 0 0 0 1.992-1.57 5.643 5.643 0 0 0 .983-3.738c0-.832-.058-2.051-.14-2.8a5.594 5.594 0 0 0-.246-1.276 6.839 6.839 0 0 1 1.338.14zm6.682 7.533a1.794 1.794 0 0 0 .973.972 6.582 6.582 0 0 0 2.168.247c1.51 0 3.291-.082 5.037-.258a2.167 2.167 0 0 0-.316.89c-.061.375-.061.375-.434.4a74.366 74.366 0 0 1-4.1.117 8 8 0 0 1-2.742-.339 2.269 2.269 0 0 1-1.147-1.042 13.221 13.221 0 0 1-1.206 1.031 1.085 1.085 0 0 0-.234.234c-.059.083-.105.117-.176.117-.047 0-.117-.058-.164-.152a10.459 10.459 0 0 1-.481-1.1 5.451 5.451 0 0 0 .692-.363 7.618 7.618 0 0 0 .984-.75v-2.6h-.562c-.633 0-.8.023-.856.023-.128 0-.14-.012-.14-.141v-.891c0-.117.012-.129.14-.129.06 0 .224.024.856.024h.726c.62 0 .808-.024.879-.024.117 0 .129.012.129.129 0 .07-.023.4-.023 1.113zm-1.71-7.721a.328.328 0 0 1 .151-.07c.036 0 .059.024.105.06a10.1 10.1 0 0 1 1.582 1.792c.069.094.082.129-.059.234l-.655.5c-.071.048-.118.083-.153.083s-.07-.035-.105-.083a10.579 10.579 0 0 0-1.546-1.874c-.095-.094-.082-.128.047-.21zm7.7 2.566a.448.448 0 0 0 .246-.048.263.263 0 0 1 .151-.046c.106 0 .188.035.493.328.281.28.316.374.316.445a.26.26 0 0 1-.106.2 1.235 1.235 0 0 0-.221.422 9.588 9.588 0 0 1-1.266 2.26 8.72 8.72 0 0 0 2.343 1.161 3.81 3.81 0 0 0-.445.843c-.07.211-.13.293-.224.293a.737.737 0 0 1-.245-.082 8.675 8.675 0 0 1-2.226-1.336 8.391 8.391 0 0 1-1.98 1.359.871.871 0 0 1-.281.117c-.082 0-.129-.082-.234-.269a1.9 1.9 0 0 0-.562-.645 8 8 0 0 0 2.262-1.347 6.985 6.985 0 0 1-1.395-2.612h-.2a13.914 13.914 0 0 1-.163 1.8 6.88 6.88 0 0 1-1 2.683c-.095.152-.141.223-.2.223s-.129-.071-.222-.211a2.315 2.315 0 0 0-.645-.633 5.357 5.357 0 0 0 .961-2.5 18.424 18.424 0 0 0 .152-2.87c0-1.219-.024-1.781-.024-1.852 0-.129.012-.141.13-.141.069 0 .469.023 1.569.023h3.069c1.1 0 1.477-.023 1.547-.023.117 0 .129.012.129.141v.867c0 .117-.012.129-.129.129-.07 0-.444-.023-1.547-.023h-3.607v1.336zm-2.308 1.043a5.573 5.573 0 0 0 1.089 1.792 7.462 7.462 0 0 0 .974-1.792zm9.266-3.221c.151.058.222.128.222.234a.267.267 0 0 1-.082.187 1.37 1.37 0 0 0-.211.551c-.163.8-.258 1.628-.327 2.238a11.834 11.834 0 0 0-.036 1.289c.258-.457.5-.9.82-1.5a2.449 2.449 0 0 0 .363.762.269.269 0 0 1 .07.188.552.552 0 0 1-.117.292 9.61 9.61 0 0 0-.691 1.5 1.469 1.469 0 0 0-.059.352.165.165 0 0 1-.152.188c-.141.035-.644.105-.937.14-.082.012-.142-.07-.165-.152a7.491 7.491 0 0 1-.352-2.378 24.793 24.793 0 0 1 .282-2.917 11.047 11.047 0 0 0 .093-1.336 6.119 6.119 0 0 1 1.279.362zm3.807-.2c.234.059.258.118.234.317a4.138 4.138 0 0 0-.023.539c.082 1.113.164 2.179.164 3.022a7.7 7.7 0 0 1-.891 4.066 6.461 6.461 0 0 1-1.932 1.886.417.417 0 0 1-.235.082.34.34 0 0 1-.246-.129 2.7 2.7 0 0 0-1-.539 5.811 5.811 0 0 0 1.992-1.57 5.643 5.643 0 0 0 .984-3.738 30.8 30.8 0 0 0-.141-2.8 5.589 5.589 0 0 0-.247-1.276 6.85 6.85 0 0 1 1.34.14z" fill="#00a0e9"/><path d="M300.685 90.794h-1.593V81.7h1.593zm3.447-5.307a2.447 2.447 0 0 1 2.027-1.266 1.525 1.525 0 0 1 1.581 1.254 2.479 2.479 0 0 1 2.038-1.254 1.714 1.714 0 0 1 1.758 1.933v4.64h-1.477v-4.229c0-.727-.315-1.078-.891-1.078a1.7 1.7 0 0 0-1.347 1.089v4.218h-1.452v-4.229c0-.739-.281-1.078-.8-1.078a1.768 1.768 0 0 0-1.395 1.089v4.218h-1.453v-6.432h1.406zm10.686-.177a2.133 2.133 0 0 1 1.8-1.089c1.406 0 2.448 1.113 2.448 3.316s-1.136 3.409-2.52 3.409a1.82 1.82 0 0 1-1.686-1.054v3.164h-1.466v-8.693h1.418zm.048 3.422a1.509 1.509 0 0 0 1.3 1.077c.773 0 1.4-.68 1.4-2.238s-.574-2.2-1.312-2.2a1.551 1.551 0 0 0-1.382 1.09zm8.997-3.128c-.773 0-1.417.5-1.827 1.628v3.562h-1.453v-6.432h1.383v1.582c.457-1.265 1.124-1.722 1.992-1.722zm6.748 1.971c0 2.085-1.159 3.386-2.917 3.386s-2.905-1.266-2.905-3.351 1.172-3.386 2.917-3.386 2.905 1.263 2.905 3.351zm-4.312.012c0 1.488.445 2.308 1.395 2.308s1.406-.809 1.406-2.308c0-1.477-.445-2.3-1.395-2.3s-1.405.82-1.405 2.297zm8.861 3.208h-1.746l-1.992-6.433h1.582l.668 2.683c.223.879.375 1.617.586 2.507h.141c.234-.879.4-1.641.644-2.542l.691-2.648h1.442zm4.265-2.895c.012 1.218.551 2.027 1.616 2.027.668 0 1.137-.375 1.358-1.218l1.336.386a2.549 2.549 0 0 1-2.706 1.863c-1.921 0-3.046-1.23-3.046-3.339s1.183-3.4 2.917-3.4c1.64 0 2.87 1.2 2.87 3.374v.3zm2.9-.972c-.069-1.078-.526-1.687-1.405-1.687s-1.406.656-1.476 1.687z" fill="#fff"/><g fill="#00a0e9"><path d="M444.965 78.238a4.088 4.088 0 0 0-4.076-4.076h-65.215a4.088 4.088 0 0 0-4.076 4.076v18.851h73.367z"/><path d="M445.733 97.855h-74.9V78.239a4.846 4.846 0 0 1 4.841-4.84h65.214a4.846 4.846 0 0 1 4.841 4.84zm-73.366-1.528h71.839V78.24a3.317 3.317 0 0 0-3.313-3.312h-65.214a3.316 3.316 0 0 0-3.312 3.312z"/></g><path d="M371.598 97.089v64.7a4.087 4.087 0 0 0 4.076 4.076h65.215a4.087 4.087 0 0 0 4.076-4.076v-64.7z" fill="#fff"/><path d="M440.888 166.635h-65.214a4.847 4.847 0 0 1-4.841-4.84v-65.47h74.9v65.469a4.846 4.846 0 0 1-4.845 4.841zm-68.525-68.781v63.94a3.316 3.316 0 0 0 3.312 3.312h65.214a3.317 3.317 0 0 0 3.313-3.312v-63.94z" fill="#00a0e9"/><path d="M383.964 121.389a8.736 8.736 0 0 0 1.629-3.737 8.171 8.171 0 0 0 .141-1.02 9.313 9.313 0 0 1 1.113.234c.151.037.234.094.234.165a.267.267 0 0 1-.083.188 1.761 1.761 0 0 0-.222.6c-.094.317-.177.633-.281.937h1.979c1.1 0 1.477-.022 1.56-.022.116 0 .128.012.128.129v.843c0 .117-.012.129-.128.129-.071 0-.306-.012-.891-.024a9.508 9.508 0 0 1-1.3 4.429 8.748 8.748 0 0 0 2.578 1.91 3.238 3.238 0 0 0-.539.82c-.094.188-.141.27-.234.27a.57.57 0 0 1-.281-.117 9.748 9.748 0 0 1-2.226-1.957 8.539 8.539 0 0 1-2.836 2.05.983.983 0 0 1-.293.094c-.082 0-.116-.059-.2-.2a2.833 2.833 0 0 0-.609-.773 7.79 7.79 0 0 0 3.223-2.121 9.092 9.092 0 0 1-1.113-2.741c-.152.258-.316.5-.493.75-.1.141-.163.2-.221.2s-.118-.071-.224-.223a3.847 3.847 0 0 0-.4-.445c0 .175.013.281.013.316 0 .117-.013.129-.141.129h-.915c-.116 0-.129-.012-.129-.129v-.457h-1.7v2.647c0 .27.011.445.1.516a1.521 1.521 0 0 0 .786.141c.62 0 .971-.07 1.147-.27s.223-.515.257-1.406a2.707 2.707 0 0 0 .774.328c.362.106.375.106.339.457a2.09 2.09 0 0 1-.573 1.583 3.25 3.25 0 0 1-2.132.445 2.58 2.58 0 0 1-1.57-.293c-.211-.187-.294-.422-.294-.937v-2.953c0-.773-.022-1.172-.022-1.242 0-.129.012-.141.14-.141.07 0 .388.024 1.055.024h1.687v-1.9h-1.758c-.866 0-1.147.023-1.205.023-.118 0-.13-.012-.13-.141v-.89c0-.119.012-.129.13-.129.058 0 .339.023 1.205.023h1.56c.878 0 1.172-.023 1.242-.023.128 0 .141.011.141.129 0 .082-.024.385-.024 1.17zm2.156-1.582c-.023.059-.036.117-.059.165a8.869 8.869 0 0 0 1.043 3.257 8.438 8.438 0 0 0 .854-3.422zm6.845 3.878c-1.044 0-1.406.023-1.477.023-.117 0-.129-.011-.129-.128v-.727c0-.117.012-.128.129-.128.07 0 .433.023 1.477.023h.655a6.557 6.557 0 0 0-.41-.644c-.082-.095-.059-.142.082-.176l.668-.175c.164-.048.188-.036.27.058a5.655 5.655 0 0 1 .621.938h1.031v-1.1h-2.87c-1.044 0-1.406.023-1.478.023-.116 0-.128-.011-.128-.139v-.692c0-.117.012-.129.128-.129.071 0 .434.025 1.478.025h2.87v-.609h-1.535c-1.148 0-1.547.022-1.616.022-.118 0-.13-.011-.13-.128v-.631c0-.119.012-.129.13-.129.069 0 .468.023 1.616.023h1.535v-.586h-2.2c-1.125 0-1.5.023-1.57.023-.117 0-.128-.011-.128-.13v-.691c0-.117.011-.128.128-.128.07 0 .445.023 1.57.023h.7a6.307 6.307 0 0 0-.527-.761c-.082-.106-.094-.129.07-.176l.75-.211c.129-.036.152-.036.223.047a6.536 6.536 0 0 1 .762 1.1h1.641c.128-.2.245-.411.374-.646a2.705 2.705 0 0 0 .2-.526 7.823 7.823 0 0 1 1.077.269c.082.023.129.07.129.142a.2.2 0 0 1-.105.163.922.922 0 0 0-.223.247 3.071 3.071 0 0 1-.246.352h.949c1.125 0 1.5-.023 1.57-.023.117 0 .128.011.128.128v.691c0 .119-.011.13-.128.13-.07 0-.445-.023-1.57-.023h-2.378v.586h1.71c1.148 0 1.547-.023 1.616-.023.118 0 .13.011.13.129v.631c0 .117-.012.128-.13.128-.069 0-.468-.022-1.616-.022h-1.71v.609h3.069c1.054 0 1.405-.025 1.476-.025.13 0 .141.012.141.129v.692c0 .128-.011.139-.141.139-.07 0-.422-.023-1.476-.023h-3.069v1.1h1.112a4.04 4.04 0 0 0 .282-.492 2.157 2.157 0 0 0 .222-.551 6.471 6.471 0 0 1 1.054.271c.071.023.13.069.13.139a.193.193 0 0 1-.116.152.9.9 0 0 0-.224.247l-.151.234h.784c1.043 0 1.395-.023 1.464-.023.129 0 .142.011.142.128v.727c0 .117-.013.128-.142.128-.069 0-.421-.023-1.464-.023zm-.013 3.7c-.117 0-.128-.012-.128-.129 0-.07.022-.281.022-1.5v-.55c0-.539-.022-.785-.022-.867 0-.116.011-.128.128-.128.082 0 .48.023 1.629.023h3.972c1.137 0 1.547-.023 1.617-.023.129 0 .14.012.14.128 0 .07-.022.328-.022.738v.668c0 1.183.022 1.417.022 1.477 0 .117-.011.128-.14.128h-.9c-.116 0-.129-.011-.129-.128v-.293h-5.144v.328c0 .117-.012.129-.141.129zm1.043-1.383h5.144v-.867h-5.144zm17.446-6.241a10.062 10.062 0 0 1-2.2 4.242 12.161 12.161 0 0 0 4.289 1.991 3 3 0 0 0-.551.961c-.082.223-.117.3-.234.3a1.038 1.038 0 0 1-.27-.058 12.965 12.965 0 0 1-4.183-2.32 13.2 13.2 0 0 1-4.183 2.3 1.39 1.39 0 0 1-.281.07c-.105 0-.141-.083-.222-.293a2.668 2.668 0 0 0-.527-.867 12.486 12.486 0 0 0 4.287-2.073 10.788 10.788 0 0 1-2.273-4.253h-.222c-1.055 0-1.418.023-1.488.023-.117 0-.129-.011-.129-.128v-.949c0-.118.012-.129.129-.129.07 0 .434.024 1.488.024h2.7v-.562a7.027 7.027 0 0 0-.094-1.347 11.768 11.768 0 0 1 1.3.082c.118 0 .188.058.188.129a.547.547 0 0 1-.069.234c-.071.117-.071.246-.071.878v.586h2.9c1.054 0 1.417-.024 1.487-.024.129 0 .141.012.141.129v.949c0 .117-.012.128-.141.128-.07 0-.434-.023-1.487-.023zm-5.073 0a8.057 8.057 0 0 0 1.934 3.421 7.309 7.309 0 0 0 1.758-3.421zm10.104 3.057c0-.445.011-.984.022-1.5a12.645 12.645 0 0 1-1.043 1.218c-.116.105-.187.176-.257.176s-.118-.083-.176-.258a4.493 4.493 0 0 0-.445-.961 9.661 9.661 0 0 0 2.706-3.96 4.307 4.307 0 0 0 .234-.819 8.02 8.02 0 0 1 1.137.374c.151.059.2.094.2.176a.242.242 0 0 1-.1.2 1.211 1.211 0 0 0-.293.5 13.942 13.942 0 0 1-.738 1.511v5.988c0 1.136.023 1.71.023 1.78 0 .105-.013.117-.129.117h-1.02c-.129 0-.141-.012-.141-.117 0-.082.024-.644.024-1.78zm4.462 2.39c0 .422.071.574.328.668a4.178 4.178 0 0 0 1.161.082 1.744 1.744 0 0 0 1.206-.292c.2-.164.3-.668.352-1.78a3.711 3.711 0 0 0 .9.48c.292.1.281.1.259.41-.083 1.148-.282 1.652-.681 1.945a3.951 3.951 0 0 1-2.121.4 4.929 4.929 0 0 1-2.038-.234c-.386-.187-.62-.492-.62-1.276v-7.393a8.158 8.158 0 0 0-.071-1.359c.469.011.844.035 1.254.082.152.011.223.058.223.152a.453.453 0 0 1-.07.223 1.89 1.89 0 0 0-.083.8v2.929a12.886 12.886 0 0 0 2.168-1.723 4.564 4.564 0 0 0 .691-.8 10.14 10.14 0 0 1 .913.773c.095.094.13.152.13.234s-.083.152-.2.188a2.416 2.416 0 0 0-.609.445 20.266 20.266 0 0 1-3.094 2.273zm11.53-5.927A14.623 14.623 0 0 1 431 124.33a2.224 2.224 0 0 1-1.991 1.347c-1.031 0-2.074-1.1-2.074-3.01a4.317 4.317 0 0 1 1.324-3.045 5.128 5.128 0 0 1 3.808-1.5c2.812 0 4.463 1.734 4.463 4.065 0 2.179-1.229 3.55-3.607 4.265-.246.07-.352.023-.5-.211a2.459 2.459 0 0 0-.819-.737c1.98-.469 3.538-1.289 3.538-3.5a2.661 2.661 0 0 0-2.624-2.719zm-3.361 1.136a3.371 3.371 0 0 0-.913 2.167c0 1.077.433 1.675.8 1.675.3 0 .563-.153.878-.714a13.361 13.361 0 0 0 1.242-4.194 3.526 3.526 0 0 0-2.008 1.066zm-31.639 19.925a5.24 5.24 0 0 0 .022-.75c.352.059.7.129.9.188.141.035.2.094.2.141a.262.262 0 0 1-.058.175 1.453 1.453 0 0 0-.094.434 13.56 13.56 0 0 1-.388 2.108c-.058.188-.081.281-.152.281a.73.73 0 0 1-.269-.14 4.047 4.047 0 0 0-.645-.305 6.863 6.863 0 0 0 .484-2.132zm.48-1.359a1.158 1.158 0 0 0-.445.094.33.33 0 0 1-.177.047c-.081 0-.128-.07-.151-.187-.059-.3-.094-.621-.13-1a6 6 0 0 0 .9.034c.222-.281.433-.573.644-.866a14.6 14.6 0 0 0-1.534-1.746.16.16 0 0 1-.06-.105c0-.047.036-.082.083-.152l.433-.574c.094-.117.13-.129.211-.035l.281.293a12.2 12.2 0 0 0 .691-1.29 2.594 2.594 0 0 0 .211-.621c.34.129.691.282.973.422.106.059.152.118.152.188a.178.178 0 0 1-.106.152.629.629 0 0 0-.221.281 15.979 15.979 0 0 1-1.009 1.628c.176.2.353.4.516.6.27-.422.516-.855.761-1.289a5.147 5.147 0 0 0 .328-.738 6.544 6.544 0 0 1 .974.434c.1.058.141.093.141.163s-.047.129-.13.188a1.538 1.538 0 0 0-.363.456c-.6.96-1.217 1.851-1.769 2.565l1.184-.069a7.1 7.1 0 0 0-.281-.727c-.047-.106-.023-.142.117-.2l.527-.223c.129-.059.141-.047.188.07a11.537 11.537 0 0 1 .715 2.027v-3.737a14.845 14.845 0 0 0-.083-1.676c.34.012.867.059 1.16.094.117.023.164.07.164.129a.444.444 0 0 1-.069.223 2.573 2.573 0 0 0-.06.914v7.217h3.562c.984 0 1.313-.023 1.371-.023.117 0 .128.011.128.129v.879c0 .117-.011.128-.128.128-.059 0-.387-.023-1.371-.023h-3.562v.468c0 .117-.012.129-.128.129h-.88c-.116 0-.129-.012-.129-.129 0-.07.024-.562.024-1.6v-2.871a.23.23 0 0 1-.117.059l-.575.211c-.163.058-.187.058-.21-.083a8.112 8.112 0 0 0-.118-.515l-.656.082v3.222c0 1.078.024 1.476.024 1.535 0 .117-.011.129-.129.129h-.891c-.116 0-.13-.012-.13-.129 0-.07.024-.457.024-1.535v-3.117zm2.869.621c.13-.035.164-.035.2.083a9.41 9.41 0 0 1 .445 2.05c.023.117 0 .153-.141.2l-.6.2c-.164.059-.175.047-.187-.082a10.87 10.87 0 0 0-.375-2.132c-.034-.117-.022-.141.118-.175zm3.913-5.072a12.767 12.767 0 0 0-.069-1.453c.351.011.737.058 1.03.093.141.024.223.071.223.129a.444.444 0 0 1-.069.2 2.786 2.786 0 0 0-.071.926v2.355h.422c.948 0 1.254-.024 1.323-.024.118 0 .13.012.13.142v.809c0 .105-.012.117-.13.117-.069 0-.375-.023-1.323-.023h-.187a7.377 7.377 0 0 0 1.745 2.167 3.04 3.04 0 0 0-.421.668c-.059.129-.117.188-.176.188s-.117-.047-.2-.128a6.54 6.54 0 0 1-1.241-1.992c0 1.71.059 2.519.059 2.789 0 .117-.012.128-.129.128h-.82c-.117 0-.128-.011-.128-.128 0-.27.07-1.031.081-2.717a6.531 6.531 0 0 1-1.159 1.932c-.094.106-.164.164-.223.164s-.105-.058-.187-.175a1.95 1.95 0 0 0-.457-.562 6.593 6.593 0 0 0 1.7-2.332c-.925 0-1.241.023-1.312.023-.117 0-.128-.011-.128-.117v-.809c0-.129.011-.142.128-.142.07 0 .387.024 1.336.024h.257zm-1.042-.539c.141-.047.176-.024.223.093a10.615 10.615 0 0 1 .527 1.816c.035.164.011.164-.153.222l-.562.188c-.165.059-.2.035-.223-.094a9.1 9.1 0 0 0-.469-1.828c-.047-.117-.022-.164.117-.2zm2.8.375a2.851 2.851 0 0 0 .083-.48c.223.059.714.211.914.293.105.047.141.082.141.141a.223.223 0 0 1-.083.141.666.666 0 0 0-.117.257 10.927 10.927 0 0 1-.469 1.313c-.081.21-.128.292-.221.292a.652.652 0 0 1-.271-.1 2.613 2.613 0 0 0-.539-.211 6.3 6.3 0 0 0 .561-1.647zm3.142 4.643a1.189 1.189 0 0 0-.444.094.343.343 0 0 1-.177.047c-.082 0-.118-.07-.141-.187-.058-.3-.105-.622-.141-1a7.287 7.287 0 0 0 .844.046c.234-.3.456-.608.668-.914a13.135 13.135 0 0 0-1.512-1.722.156.156 0 0 1-.058-.105c0-.046.034-.082.081-.152l.435-.574c.093-.117.127-.129.21-.035l.293.3a12.365 12.365 0 0 0 .691-1.289 3.379 3.379 0 0 0 .211-.621 8.343 8.343 0 0 1 .972.422c.106.058.152.117.152.187a.178.178 0 0 1-.105.152.64.64 0 0 0-.223.281 15.9 15.9 0 0 1-1.007 1.617l.492.574c.258-.422.5-.844.749-1.277a5.251 5.251 0 0 0 .328-.738 8.071 8.071 0 0 1 .973.433c.105.059.141.094.141.164s-.035.129-.129.188a1.561 1.561 0 0 0-.364.457 35.554 35.554 0 0 1-1.792 2.6c.388-.012.785-.036 1.2-.071a8.33 8.33 0 0 0-.281-.714c-.047-.105-.023-.141.116-.2l.539-.223c.082-.035.129-.035.176.071a13 13 0 0 1 .738 2.12v-.7c0-.316-.023-.48-.023-.538 0-.118.012-.187.141-.187.07 0 .445.022 1.511.022h2.718c1.078 0 1.453-.022 1.536-.022.115 0 .128.012.128.128 0 .07-.023.222-.023.469v.41c0 .856.023 1 .023 1.067 0 .116-.013.128-.128.128h-.856c-.128 0-.128-.012-.128-.128v-1.067h-3.809v1.067c0 .116-.011.128-.129.128h-.843c-.129 0-.141-.012-.141-.128 0-.059.012-.153.023-.516a.265.265 0 0 1-.141.082l-.574.211c-.165.059-.187.059-.2-.082l-.117-.516c-.2.023-.387.047-.574.058v3.222c0 1.078.023 1.476.023 1.535 0 .117-.011.129-.128.129h-.891c-.117 0-.13-.012-.13-.129 0-.07.024-.457.024-1.535v-3.116zm-.434 1.394a5.236 5.236 0 0 0 .023-.75 7.968 7.968 0 0 1 .9.187c.14.047.2.094.2.141a.259.259 0 0 1-.06.175 1.569 1.569 0 0 0-.093.434 13.715 13.715 0 0 1-.388 2.109c-.058.187-.081.281-.151.281a.737.737 0 0 1-.271-.141 3.956 3.956 0 0 0-.644-.3 6.835 6.835 0 0 0 .484-2.14zm3.373-.774c.142-.034.165-.034.2.082a12.859 12.859 0 0 1 .41 1.758c.012.117.023.152-.142.211l-.585.2c-.164.059-.187.047-.2-.082a11.869 11.869 0 0 0-.34-1.828c-.034-.117-.023-.152.117-.187zm2.109.363a9.12 9.12 0 0 0-.011-.972c.362.047.7.083 1.019.129.141.023.211.058.211.141a.611.611 0 0 1-.058.246 3.573 3.573 0 0 0-.083.609 3.517 3.517 0 0 1-2.272 3.4.813.813 0 0 1-.27.094c-.094 0-.141-.083-.258-.258a2.357 2.357 0 0 0-.575-.645c1.806-.568 2.24-1.482 2.298-2.748zm.388-3.151c-1.031 0-1.372.023-1.441.023-.105 0-.118-.012-.118-.129v-.715c0-.117.013-.129.118-.129.069 0 .41.024 1.441.024h.433v-.762h-.69c-1.09 0-1.453.023-1.522.023-.118 0-.13-.012-.13-.129v-.738c0-.105.012-.117.13-.117.069 0 .433.024 1.522.024h.69v-.083a5.83 5.83 0 0 0-.081-1.207c.432.011.772.035 1.183.082.116.012.188.071.188.118a.409.409 0 0 1-.082.234 1.7 1.7 0 0 0-.059.655v.2h1.054c1.078 0 1.453-.024 1.523-.024.117 0 .128.012.128.117v.738c0 .117-.011.129-.128.129-.07 0-.445-.023-1.523-.023h-1.054v.762h.726c1.021 0 1.37-.024 1.442-.024.115 0 .128.012.128.129v.715c0 .117-.013.129-.128.129-.072 0-.422-.023-1.442-.023zm2.447 5.284c0 .175.011.258.083.3a.672.672 0 0 0 .375.07.559.559 0 0 0 .457-.164c.093-.129.129-.387.14-1.242a3.223 3.223 0 0 0 .68.3c.317.094.3.105.292.41-.047.868-.162 1.183-.4 1.406s-.562.316-1.4.316a1.883 1.883 0 0 1-1-.164c-.21-.129-.328-.34-.328-.832v-2.308a8.14 8.14 0 0 0-.059-1.183c.387.012.715.036 1.09.083.128.011.2.058.2.128a.641.641 0 0 1-.081.27 2.476 2.476 0 0 0-.06.878z" fill="#00a0e9"/><path d="M393.747 84.68c-.222-1.266-.878-1.922-1.909-1.922-1.348 0-2.284 1.172-2.284 3.492s.96 3.491 2.284 3.491c1.089 0 1.745-.622 2-1.945l1.488.457a3.249 3.249 0 0 1-3.5 2.707c-2.354 0-3.948-1.7-3.948-4.7s1.6-4.722 3.948-4.722a3.3 3.3 0 0 1 3.456 2.766zm8.344 2.896c0 2.085-1.16 3.386-2.918 3.386s-2.905-1.266-2.905-3.351 1.172-3.386 2.917-3.386 2.906 1.263 2.906 3.351zm-4.311.012c0 1.488.444 2.308 1.393 2.308s1.406-.809 1.406-2.308c0-1.477-.445-2.3-1.395-2.3s-1.403.82-1.403 2.297zm7.253-2.1a2.622 2.622 0 0 1 2.108-1.266 1.761 1.761 0 0 1 1.84 1.933v4.64h-1.512v-4.229c0-.739-.315-1.078-.891-1.078a1.97 1.97 0 0 0-1.5 1.089v4.218h-1.477v-6.432h1.43zm7.57-1.128h1.44v1.078h-1.44v3.527c0 .644.258.924.8.924a3.353 3.353 0 0 0 .75-.07l-.06 1.055a7.657 7.657 0 0 1-1.147.07c-1.219 0-1.792-.527-1.792-1.711v-3.795h-.961V84.36h.961v-1.769l1.452-.328zm5.975 1.245c-.772 0-1.417.5-1.827 1.628v3.562h-1.452v-6.432h1.382v1.582c.458-1.265 1.125-1.722 1.991-1.722zm6.748 1.971c0 2.085-1.159 3.386-2.916 3.386s-2.906-1.266-2.906-3.351 1.172-3.386 2.917-3.386 2.905 1.263 2.905 3.351zm-4.312.012c0 1.488.446 2.308 1.4 2.308s1.405-.809 1.405-2.308c0-1.477-.445-2.3-1.395-2.3s-1.409.82-1.409 2.297zm7.301 3.208h-1.476V81.54h1.476z" fill="#fff"/><g fill="#00a0e9"><path d="M119.178 16.916h4.558v4.042h-4.558zm-34.452-1.244h-.105c-.2.867-.363 1.522-.562 2.226l-.491 1.852h2.226l-.526-1.839c-.203-.713-.343-1.38-.542-2.239zm29.559-1.707a.691.691 0 1 0 .692.691.671.671 0 0 0-.692-.691z"/><path d="M161.18 0H50.11a4.877 4.877 0 0 0-4.872 4.871v28.532a4.878 4.878 0 0 0 4.872 4.872h111.07a4.878 4.878 0 0 0 4.871-4.872V4.871A4.877 4.877 0 0 0 161.18 0zM64.455 23.594h-2.836v-9.092h3.047c2.706 0 4.323 1.429 4.323 4.488s-1.804 4.604-4.534 4.604zm15.186 0h-1.512v-4.593c0-1.136.013-2.132.023-3.21h-.164c-.234 1.042-.444 1.98-.749 3.093l-1.23 4.71h-1.852l-1.194-4.651c-.281-1.055-.5-2.039-.773-3.152h-.164c.023 1.054.035 2.108.035 3.233v4.569h-1.395v-9.092h2.566l1.147 4.64c.234.95.469 2 .656 3h.164c.246-1 .434-1.932.7-2.976l1.159-4.663h2.578zm7.207 0l-.773-2.671h-2.788l-.785 2.671h-1.5l2.788-9.092h1.909l2.8 9.092zm4.606 0H89.86v-9.092h1.594zm5.624.164c-2.355 0-3.948-1.7-3.948-4.7s1.6-4.722 3.948-4.722a3.3 3.3 0 0 1 3.456 2.765l-1.535.375c-.223-1.265-.879-1.921-1.909-1.921-1.348 0-2.284 1.171-2.284 3.491s.96 3.492 2.284 3.492c1.089 0 1.745-.622 2-1.946l1.488.457a3.249 3.249 0 0 1-3.5 2.712zm16.368-6.971a1.412 1.412 0 0 0-.269.457 13.8 13.8 0 0 1-2.273 3.808 13.118 13.118 0 0 1-3.327 2.789.567.567 0 0 1-.315.105.412.412 0 0 1-.294-.129 3.5 3.5 0 0 0-1.089-.645 11.323 11.323 0 0 0 3.831-2.929 9.87 9.87 0 0 0 1.979-3.339h-4.229c-.762 0-1.429.035-1.933.059-.152.012-.2-.07-.223-.234a22.001 22.001 0 0 1-.105-1.184 20.5 20.5 0 0 0 2.249.082h4.183a1.126 1.126 0 0 0 .645-.117.375.375 0 0 1 .2-.071.276.276 0 0 1 .2.082 4.327 4.327 0 0 1 .8.809.4.4 0 0 1 .095.234.322.322 0 0 1-.125.223zm.844-.879a1.25 1.25 0 0 1-1.265-1.253 1.235 1.235 0 0 1 1.265-1.253 1.254 1.254 0 1 1 0 2.507zm10.677 7.1c-.352.011-.727.011-1.079 0-.141 0-.151-.023-.151-.188v-.621h-4.546v.691c0 .2-.047.223-.258.234-.294.012-.633.012-.926 0-.2-.011-.258-.035-.246-.176.012-.609.034-1.441.034-2.331v-2.871c0-.633.014-1.266-.022-1.945 0-.117.047-.164.129-.164.621.035 1.312.035 2.1.035h2.79c.761 0 1.651 0 2.2-.023.128 0 .164.059.151.234 0 .574-.011 1.207-.011 1.9v2.8c0 1.019.034 1.593.058 2.226-.001.164-.059.2-.223.2zm12.608-5.354a1.536 1.536 0 0 0-.364.457 12.271 12.271 0 0 1-1.861 2.531.468.468 0 0 1-.306.175.379.379 0 0 1-.223-.082 3.966 3.966 0 0 0-.972-.445 9.77 9.77 0 0 0 1.909-2.343l-3.222.82v2.66c0 .621.211.82 1.477.82a17.586 17.586 0 0 0 2.836-.258c.163-.023.174.059.2.234a5.618 5.618 0 0 1 .105.983c0 .118-.069.165-.246.176a22.985 22.985 0 0 1-2.8.141c-2.238 0-2.93-.48-2.93-2.062v-2.367l-.749.2a12.517 12.517 0 0 0-1.652.5.486.486 0 0 1-.141.047c-.082 0-.128-.059-.188-.187a8.891 8.891 0 0 1-.467-1.195 18.018 18.018 0 0 0 2.2-.41l1-.246v-1.125a9.483 9.483 0 0 0-.152-2.062 8.37 8.37 0 0 1 1.512.235c.151.035.223.1.223.21a.369.369 0 0 1-.071.188 2.117 2.117 0 0 0-.151 1.042v1.207l3.058-.715a1.662 1.662 0 0 0 .833-.339.273.273 0 0 1 .163-.071.253.253 0 0 1 .164.071 4.586 4.586 0 0 1 .867.761.3.3 0 0 1 .1.211.317.317 0 0 1-.152.238zm11.87 4.8a6.244 6.244 0 0 1-.785.8.205.205 0 0 1-.141.071.238.238 0 0 1-.163-.094 21.291 21.291 0 0 0-3.047-2.9 16.86 16.86 0 0 1-3.936 3.092.739.739 0 0 1-.271.094.257.257 0 0 1-.2-.105 3.229 3.229 0 0 0-.984-.761 14.219 14.219 0 0 0 4.124-2.988 14.39 14.39 0 0 0 2.2-2.941l-3.022.012c-.609 0-1.219.023-1.851.07-.094.012-.13-.07-.153-.2a6.832 6.832 0 0 1-.105-1.219c.634.047 1.219.047 1.979.047h3.224a1.718 1.718 0 0 0 .807-.105.2.2 0 0 1 .129-.047.393.393 0 0 1 .2.093 4.349 4.349 0 0 1 .762.82.319.319 0 0 1 .058.153.326.326 0 0 1-.151.234 2.143 2.143 0 0 0-.434.515 18.447 18.447 0 0 1-1.5 2.191 27.508 27.508 0 0 1 3.245 2.835.267.267 0 0 1 .094.164.29.29 0 0 1-.078.176z"/><path d="M64.5 15.726h-1.312v6.654h1.23c1.769 0 2.894-1.008 2.894-3.374.005-2.347-1.054-3.28-2.812-3.28z"/></g><g transform="translate(45.27 201.789)"><rect width="119.22" height="36.683" rx="8" transform="translate(.764 .764)" fill="#fff"/><path d="M115.909 38.212H4.841A4.846 4.846 0 0 1 0 33.372V4.841A4.847 4.847 0 0 1 4.841 0h111.068a4.846 4.846 0 0 1 4.84 4.841v28.531a4.845 4.845 0 0 1-4.84 4.84zM4.841 1.529a3.316 3.316 0 0 0-3.312 3.312v28.531a3.317 3.317 0 0 0 3.313 3.313H115.91a3.316 3.316 0 0 0 3.312-3.312V4.842a3.315 3.315 0 0 0-3.312-3.312z" fill="#7d7d7d"/></g><path d="M63.053 220.255a8.737 8.737 0 0 0 1.629-3.737 8.171 8.171 0 0 0 .141-1.02 8.907 8.907 0 0 1 1.113.234c.151.035.234.094.234.164a.268.268 0 0 1-.083.188 1.77 1.77 0 0 0-.222.6c-.094.317-.177.633-.281.938h1.979c1.1 0 1.476-.023 1.559-.023.117 0 .128.012.128.128v.844c0 .117-.011.129-.128.129-.07 0-.3-.012-.891-.023a9.523 9.523 0 0 1-1.3 4.428 8.763 8.763 0 0 0 2.577 1.91 3.207 3.207 0 0 0-.538.82c-.095.188-.141.27-.234.27a.568.568 0 0 1-.281-.117 9.75 9.75 0 0 1-2.226-1.957 8.522 8.522 0 0 1-2.836 2.05.964.964 0 0 1-.292.094c-.083 0-.117-.058-.2-.2a2.823 2.823 0 0 0-.609-.773 7.794 7.794 0 0 0 3.223-2.121 9.12 9.12 0 0 1-1.113-2.742c-.152.258-.315.5-.492.75-.105.141-.164.2-.223.2s-.117-.07-.223-.223a3.638 3.638 0 0 0-.4-.445c0 .176.013.281.013.316 0 .117-.013.129-.141.129h-.914c-.117 0-.13-.012-.13-.129v-.457h-1.7v2.647c0 .27.012.445.105.516a1.522 1.522 0 0 0 .785.141c.621 0 .972-.07 1.148-.27s.222-.516.258-1.406a2.694 2.694 0 0 0 .772.328c.363.105.376.105.34.457a2.082 2.082 0 0 1-.574 1.582 3.247 3.247 0 0 1-2.132.445 2.578 2.578 0 0 1-1.57-.293c-.211-.187-.292-.421-.292-.937v-2.952c0-.773-.023-1.171-.023-1.242 0-.129.011-.14.14-.14.071 0 .387.023 1.055.023h1.687v-1.9h-1.75c-.866 0-1.148.023-1.207.023-.117 0-.128-.012-.128-.141v-.891c0-.117.011-.128.128-.128.059 0 .341.023 1.207.023H61.7c.878 0 1.172-.023 1.242-.023.128 0 .141.011.141.128 0 .083-.024.387-.024 1.172zm2.156-1.581c-.023.058-.036.117-.06.164a8.878 8.878 0 0 0 1.044 3.257 8.434 8.434 0 0 0 .854-3.42zm6.845 3.878c-1.042 0-1.405.023-1.476.023-.118 0-.129-.012-.129-.129v-.726c0-.117.011-.129.129-.129.07 0 .434.023 1.476.023h.656a6.736 6.736 0 0 0-.409-.645c-.083-.094-.06-.141.081-.176l.668-.176c.165-.047.188-.035.27.059a5.655 5.655 0 0 1 .621.938h1.031v-1.1h-2.871c-1.042 0-1.406.023-1.476.023-.117 0-.128-.012-.128-.141v-.691c0-.117.011-.129.128-.129.069 0 .434.024 1.476.024h2.871v-.609h-1.535c-1.148 0-1.547.023-1.617.023-.117 0-.128-.012-.128-.129v-.633c0-.117.011-.128.128-.128.07 0 .469.023 1.617.023h1.535v-.586h-2.2c-1.125 0-1.5.023-1.569.023-.118 0-.13-.012-.13-.129v-.69c0-.117.012-.129.13-.129.069 0 .444.023 1.569.023h.7a6.564 6.564 0 0 0-.528-.762c-.082-.1-.094-.128.07-.175l.75-.211c.129-.036.153-.036.223.046a6.551 6.551 0 0 1 .761 1.1h1.641c.13-.2.247-.411.375-.645a2.73 2.73 0 0 0 .2-.526 7.651 7.651 0 0 1 1.077.269c.081.023.129.07.129.14a.2.2 0 0 1-.105.165.911.911 0 0 0-.223.246 3.338 3.338 0 0 1-.246.352h.949c1.124 0 1.5-.023 1.569-.023.117 0 .13.012.13.129v.69c0 .117-.013.129-.13.129-.07 0-.445-.023-1.569-.023h-2.378v.586h1.71c1.148 0 1.547-.023 1.617-.023.116 0 .128.011.128.128v.633c0 .117-.012.129-.128.129-.07 0-.469-.023-1.617-.023h-1.71v.609h3.069c1.054 0 1.405-.024 1.476-.024.129 0 .141.012.141.129v.691c0 .129-.012.141-.141.141-.07 0-.422-.023-1.476-.023h-3.069v1.1h1.112a4.039 4.039 0 0 0 .281-.492 2.161 2.161 0 0 0 .223-.551 6.659 6.659 0 0 1 1.055.27c.069.023.129.07.129.14s-.06.117-.117.152a.888.888 0 0 0-.223.246l-.153.234h.786c1.042 0 1.394-.023 1.464-.023.129 0 .141.012.141.129v.726c0 .117-.012.129-.141.129-.07 0-.422-.023-1.464-.023zm-.011 3.7c-.117 0-.13-.012-.13-.129 0-.071.023-.282.023-1.5v-.55c0-.539-.023-.785-.023-.867 0-.117.013-.129.13-.129.081 0 .479.023 1.628.023h3.972c1.136 0 1.547-.023 1.617-.023.128 0 .14.012.14.129 0 .07-.023.328-.023.737v.668c0 1.184.023 1.418.023 1.476 0 .117-.012.129-.14.129h-.9c-.117 0-.128-.012-.128-.129v-.292h-5.144v.328c0 .117-.012.129-.141.129zm1.042-1.382h5.144v-.867h-5.144zm13.838-5.4c-.117.117-.188.176-.246.176s-.116-.071-.234-.234a2.373 2.373 0 0 0-.562-.481 5.971 5.971 0 0 0 .539-.55h-.023c-.059 0-.363-.023-1.265-.023h-.82c-.012.445-.012.867-.035 1.265h1.148c.5 0 .632-.023.7-.023.118 0 .142.023.142.14-.023.364-.023.739-.035 1.266a14.786 14.786 0 0 1-.327 4.125 1.146 1.146 0 0 1-1.219.9c-.176 0-.328 0-.492-.012-.187-.011-.211-.023-.246-.317a2.966 2.966 0 0 0-.27-.89 4.6 4.6 0 0 0 .762.07c.34 0 .41-.117.516-.656a23.213 23.213 0 0 0 .176-3.538h-.9a11.007 11.007 0 0 1-1.3 5.154c-.082.142-.14.2-.211.2s-.117-.057-.2-.187a2.44 2.44 0 0 0-.656-.749c1.2-1.676 1.3-3.714 1.336-6.749-.691.011-.949.023-1.007.023-.105 0-.118-.012-.118-.141v-.855c0-.117.013-.129.118-.129.069 0 .363.023 1.276.023h.48v-.6a5.049 5.049 0 0 0-.082-1.136c.434.011.809.023 1.23.058.129.012.211.059.211.129a.474.474 0 0 1-.082.222 1.95 1.95 0 0 0-.07.726v.6c.878 0 1.183-.023 1.253-.023.117 0 .129.012.129.129v.867a5.923 5.923 0 0 0 1.065-2.015 2.643 2.643 0 0 0 .164-.762c.375.059.692.105 1.031.188.152.047.2.094.2.14a.266.266 0 0 1-.069.152 1.352 1.352 0 0 0-.224.469l-.234.633h2.719c.949 0 1.265-.023 1.335-.023.117 0 .13.011.13.129v.855c0 .117-.013.128-.13.128-.07 0-.386-.023-1.335-.023h-3.252a7.026 7.026 0 0 1-.609.867c.3.012.563.023.866.058.129 0 .188.048.188.106a.465.465 0 0 1-.059.211 1.919 1.919 0 0 0-.058.691v.422l.819-.211v-.094a12.179 12.179 0 0 0-.069-1.664 8.138 8.138 0 0 1 1.078.082c.116.012.174.059.174.129a.85.85 0 0 1-.058.234 3.305 3.305 0 0 0-.07 1.042l.69-.175c.974-.257 1.324-.4 1.418-.41.071-.012.094.035.094.116-.012.153-.012.364-.022.645a17.433 17.433 0 0 1-.234 2.647.92.92 0 0 1-.716.68 2.389 2.389 0 0 1-.62.023c-.176 0-.2-.035-.211-.246a2.129 2.129 0 0 0-.224-.808 2.366 2.366 0 0 0 .54.058.263.263 0 0 0 .293-.246 11.786 11.786 0 0 0 .129-1.57l-1.137.3v1.522c0 .879.023 1.289.023 1.359 0 .117-.012.128-.141.128h-.832c-.117 0-.128-.035-.128-.152 0-.07.022-.457.022-1.336v-1.253l-.819.211v2.589c0 .469.023.633.151.727a3.037 3.037 0 0 0 1.359.14c1.1 0 1.465-.035 1.641-.2.21-.175.269-.386.281-1.241a3.011 3.011 0 0 0 .8.3c.294.095.294.095.27.411-.082 1.042-.3 1.219-.668 1.488a5.431 5.431 0 0 1-2.471.327c-1.266 0-1.7-.046-2.028-.257-.258-.176-.4-.375-.4-1.055v-2.952c-.362.1-.479.152-.526.164-.129.036-.152 0-.187-.117l-.2-.761c-.023-.083-.011-.106.094-.129.07-.011.316-.058.819-.175v-.551a9.024 9.024 0 0 0-.034-1.007zm8.802-1.921a7.758 7.758 0 0 1-.891 1.136c-.13.129-.187.2-.258.2s-.141-.071-.28-.2a3.024 3.024 0 0 0-.669-.492 6.1 6.1 0 0 0 1.559-2.051 3.016 3.016 0 0 0 .211-.644c.387.047.761.129 1.089.188.13.036.188.07.188.165s-.058.14-.141.187-.1.117-.187.293l-.1.245h1.241c1 0 1.323-.022 1.395-.022.116 0 .129.011.129.128v.762c0 .116-.013.128-.129.128-.071 0-.386-.023-1.406-.023a6.233 6.233 0 0 1 .422.843c.047.117.047.141-.118.175l-.808.2c-.176.046-.2.023-.233-.094a6.7 6.7 0 0 0-.435-1.125zm5.67 3.28c1.148 0 1.559-.023 1.641-.023.105 0 .117.012.117.129 0 .07-.023.234-.023.6v.152c0 .328.023.7.023.961a.773.773 0 0 1-.281.714 2.251 2.251 0 0 1-1.266.211c-.374 0-.4 0-.468-.363a1.9 1.9 0 0 0-.212-.6c.375.023.609.036.738.036.258 0 .317-.071.317-.3v-.551H99.59v.562a9.461 9.461 0 0 0 4.9 2.543 3.925 3.925 0 0 0-.492.773c-.117.223-.152.3-.246.3a.884.884 0 0 1-.281-.07 9.03 9.03 0 0 1-3.914-2.355c.013 1.382.059 2.343.059 2.578 0 .117-.012.129-.128.129h-.962c-.1 0-.116-.012-.116-.129 0-.234.047-1.137.059-2.507a10.545 10.545 0 0 1-3.772 2.308.878.878 0 0 1-.281.071c-.105 0-.152-.082-.258-.3a3.4 3.4 0 0 0-.492-.691 10.361 10.361 0 0 0 4.768-2.636v-.574h-2.189v.984c0 .469.023.656.023.727 0 .117-.013.129-.117.129h-.961c-.117 0-.129-.012-.129-.129 0-.082.022-.281.022-.844v-.867c0-.551-.022-.773-.022-.855 0-.117.012-.129.129-.129.081 0 .492.023 1.64.023h1.6v-.6h-2.729c-1.077 0-1.44.023-1.511.023-.128 0-.142-.011-.142-.129v-.82c0-.118.014-.129.142-.129.07 0 .434.023 1.511.023h2.729a4.305 4.305 0 0 0-.069-.878c.362.012.715.047 1.078.082l-.118-.094a2.619 2.619 0 0 0-.656-.363 5.711 5.711 0 0 0 1.161-1.8 3.277 3.277 0 0 0 .175-.632c.328.046.8.129 1.044.175.116.036.175.07.175.165s-.047.129-.128.187-.094.129-.165.328a1.605 1.605 0 0 0-.082.21h1.746c1.1 0 1.488-.022 1.559-.022.117 0 .129.011.129.128v.762c0 .116-.012.128-.129.128-.07 0-.457-.023-1.559-.023h-.3a4.923 4.923 0 0 1 .445.854c.047.117.035.141-.105.176l-.773.188c-.176.046-.211.023-.246-.094a6.652 6.652 0 0 0-.515-1.125h-.728a7.037 7.037 0 0 1-.516.714.7.7 0 0 1-.187.211.085.085 0 0 1 .047.07.379.379 0 0 1-.059.188 1.191 1.191 0 0 0-.058.469h2.87c1.078 0 1.441-.023 1.512-.023.128 0 .141.011.141.129v.82c0 .118-.013.129-.141.129-.07 0-.434-.023-1.512-.023h-2.87v.6zm10.161-2.682a14.661 14.661 0 0 1-1.465 5.049 2.226 2.226 0 0 1-1.992 1.347c-1.031 0-2.074-1.1-2.074-3.01a4.317 4.317 0 0 1 1.324-3.046 5.128 5.128 0 0 1 3.809-1.5c2.813 0 4.463 1.734 4.463 4.065 0 2.18-1.229 3.549-3.607 4.265-.246.07-.354.024-.5-.21a2.507 2.507 0 0 0-.82-.739c1.98-.469 3.537-1.289 3.537-3.5a2.66 2.66 0 0 0-2.623-2.718zm-3.363 1.136a3.373 3.373 0 0 0-.914 2.167c0 1.078.434 1.675.8 1.675.3 0 .563-.152.879-.714a13.379 13.379 0 0 0 1.242-4.194 3.532 3.532 0 0 0-2.007 1.066zm15.7-3.027c2.237 0 3.245.926 3.245 2.6s-1.16 2.671-3.339 2.671h-1.537v3.829h-1.581v-9.1zm-1.629 4.089h1.488c1.206 0 1.792-.55 1.792-1.476 0-.9-.526-1.43-1.734-1.43h-1.548zm9.587-4.089c2.706 0 4.323 1.429 4.323 4.487s-1.8 4.6-4.534 4.6h-2.835v-9.087zm-1.477 7.873h1.23c1.77 0 2.895-1.007 2.895-3.375 0-2.343-1.056-3.28-2.812-3.28h-1.312zm12.846-4.892c-.223-1.266-.879-1.922-1.91-1.922-1.348 0-2.283 1.172-2.283 3.491s.96 3.491 2.283 3.491c1.09 0 1.746-.621 2-1.945l1.486.458a3.246 3.246 0 0 1-3.5 2.706c-2.355 0-3.949-1.7-3.949-4.7s1.605-4.721 3.949-4.721a3.3 3.3 0 0 1 3.455 2.765zm9.722 6.119h-1.653l-.772-2.671h-2.788l-.785 2.671h-1.5l2.788-9.092h1.909zm-3.233-5.682c-.2-.716-.34-1.383-.54-2.239h-.105c-.2.867-.362 1.522-.562 2.226l-.491 1.852h2.226z" fill="#7d7d7d"/><path d="M314.694 225.357h-1.651l-.775-2.671h-2.788l-.78 2.671h-1.5l2.788-9.092h1.91zm-3.233-5.682c-.2-.716-.341-1.383-.539-2.239h-.1c-.2.867-.364 1.522-.562 2.226l-.494 1.852h2.228zm9.9-.46a1.463 1.463 0 0 0-1.147.327 1.869 1.869 0 0 1 .527 1.289c0 1.334-1.043 2.121-2.531 2.121a3.306 3.306 0 0 1-.832-.106c-.28.142-.468.341-.468.563 0 .271.152.4.889.469l1.453.117c1.688.164 2.227.727 2.227 1.664 0 1.125-1.137 1.957-3.233 1.957-1.863 0-2.894-.634-2.894-1.559 0-.562.469-1 1.183-1.253-.586-.129-.9-.457-.9-.926 0-.5.292-.9.983-1.336a1.918 1.918 0 0 1-.913-1.7c0-1.242 1.042-2.062 2.519-2.062a3 3 0 0 1 1.371.3 1.836 1.836 0 0 1 1.862-1.055zm-3.937 5.763c-.55.176-.867.48-.867.879 0 .563.7.89 1.771.89 1.252 0 1.873-.4 1.873-.854 0-.434-.21-.645-1.184-.75zm-.375-4.159a1.174 1.174 0 1 0 2.343.012 1.172 1.172 0 1 0-2.343-.012zm7.195-3.047h-1.594v-1.515h1.594zm-.059 7.581h-1.477v-6.433h1.477zm3.365-.001h-1.477v-9.256h1.477zm2.953-2.894c.012 1.219.551 2.028 1.616 2.028.668 0 1.137-.375 1.358-1.219l1.336.386a2.549 2.549 0 0 1-2.706 1.863c-1.921 0-3.046-1.231-3.046-3.338s1.183-3.4 2.917-3.4c1.641 0 2.87 1.195 2.87 3.375v.3zm2.905-.972c-.07-1.078-.526-1.687-1.406-1.687s-1.406.655-1.476 1.687z" fill="#fff"/></svg>